<?xml version="1.0" encoding="utf-8"?>
<!-- Generator: Adobe Illustrator 16.0.0, SVG Export Plug-In . SVG Version: 6.00 Build 0)  -->
<!DOCTYPE svg PUBLIC "-//W3C//DTD SVG 1.1//EN" "http://www.w3.org/Graphics/SVG/1.1/DTD/svg11.dtd">
<svg version="1.1" id="Layer_1" xmlns="http://www.w3.org/2000/svg" xmlns:xlink="http://www.w3.org/1999/xlink" x="0px" y="0px"
	 width="612px" height="792px" viewBox="0 0 612 792" enable-background="new 0 0 612 792" xml:space="preserve">
<g>
	<path d="M608.412,580.522c0,12.302-4.613,23.578-13.839,32.292c-9.227,9.226-19.99,13.839-32.292,13.839h-161.97
		c0,25.628-9.227,47.155-27.166,65.608c-17.939,17.939-39.979,27.165-65.607,27.165c-25.628,0-47.156-9.226-65.608-27.165
		c-18.452-17.94-27.166-39.98-27.166-65.608H53.307c-12.302,0-23.578-4.613-32.292-13.839c-9.226-9.227-13.839-19.99-13.839-32.292
		c12.302-10.251,23.065-20.502,32.804-31.778s19.99-25.629,30.754-43.056c10.764-17.939,19.477-36.904,27.166-57.407
		c7.176-20.502,13.327-45.105,17.94-74.321c4.613-29.216,7.176-60.482,7.176-93.799c0-36.392,14.352-70.733,42.542-102
		c28.191-31.267,65.096-50.744,111.226-57.407c-2.05-4.613-3.075-9.226-3.075-14.352c0-9.739,3.588-17.939,10.251-24.603
		c6.663-6.663,14.864-10.251,24.603-10.251c9.739,0,17.94,3.588,24.604,10.251c6.663,6.664,10.251,14.864,10.251,24.603
		c0,4.613-1.025,9.739-3.075,14.352c45.618,6.663,83.035,25.628,111.227,57.407c28.19,31.267,42.542,65.608,42.542,102
		c0,33.317,2.563,64.583,7.176,93.799c4.613,29.216,10.765,53.819,17.94,74.321c7.176,20.503,16.401,39.468,27.165,57.407
		c10.765,17.939,21.016,32.291,30.754,43.056C585.347,560.021,596.11,570.271,608.412,580.522L608.412,580.522z M72.784,580.522
		h470.02c-64.07-72.271-96.361-172.733-96.361-300.874c0-12.302-3.075-25.116-8.714-37.93
		c-5.638-12.814-14.352-25.628-25.115-37.417c-10.764-11.789-25.628-21.528-44.081-29.216
		c-18.452-7.688-38.954-11.276-61.507-11.276c-22.553,0-43.056,3.588-61.508,11.276s-33.316,17.427-44.081,29.216
		c-10.764,11.789-18.965,24.09-25.115,37.417c-6.151,13.327-8.714,25.628-8.714,37.93
		C168.633,407.789,136.854,508.251,72.784,580.522L72.784,580.522z M313.176,684.573c0-4.101-2.05-5.639-5.638-5.639
		c-14.352,0-26.654-5.126-36.905-15.377c-10.251-10.251-15.377-22.553-15.377-36.904c0-4.101-2.05-5.638-5.638-5.638
		c-4.101,0-5.638,2.05-5.638,5.638c0,17.427,6.151,32.804,18.452,45.105c12.302,12.302,27.166,18.452,45.106,18.452
		C311.639,690.211,313.176,688.674,313.176,684.573L313.176,684.573z"/>
</g>
</svg>
