<?xml version="1.0" encoding="utf-8"?>
<!-- Generator: Adobe Illustrator 16.0.0, SVG Export Plug-In . SVG Version: 6.00 Build 0)  -->
<!DOCTYPE svg PUBLIC "-//W3C//DTD SVG 1.1//EN" "http://www.w3.org/Graphics/SVG/1.1/DTD/svg11.dtd">
<svg version="1.1" id="Layer_1" xmlns="http://www.w3.org/2000/svg" xmlns:xlink="http://www.w3.org/1999/xlink" x="0px" y="0px"
	 width="612px" height="792px" viewBox="0 0 612 792" enable-background="new 0 0 612 792" xml:space="preserve">
<g id="XMLID_1_">
	<g>
		<path fill="#989936" d="M285.855,251.558c-1.597,5.152-8.061,6.343-8.651,6.343l-0.295-0.951
			c-0.046-0.896-0.083-1.782-0.111-2.678l0.258,0.111C277.582,254.771,280.084,257.56,285.855,251.558z"/>
		<path fill="#989936" d="M284.581,231.245c-1.865,0.711-3.306,1.875-4.414,3.379l-3.906,2.992
			C278.588,233.608,281.46,231.245,284.581,231.245z"/>
		<path fill="#989936" d="M276.262,237.616l3.906-2.992c-3.269,4.441-3.62,11.893-3.37,19.648l-0.85-0.351l-2.807-8.919v-0.009
			c0.868-2.825,1.92-5.318,3.111-7.377C276.262,237.625,276.262,237.625,276.262,237.616z"/>
		<path fill="#989936" d="M277.204,262.758c0,0,1.08,1.496-6.704,1.496c0-1.653,0.056-3.278,0.157-4.866
			c0.157-2.548,0.443-4.995,0.84-7.322l4.45,1.856l0.96,3.028C276.991,258.898,277.111,260.847,277.204,262.758z"/>
		<path fill="#424242" d="M276.908,256.95l-0.96-3.028l0.85,0.351C276.825,255.168,276.862,256.055,276.908,256.95z"/>
		<path fill="#989936" d="M273.141,245.002l2.807,8.919l-4.45-1.856C271.913,249.545,272.476,247.172,273.141,245.002z"/>
		<path fill="#989936" d="M276.252,237.616c-1.191,2.059-2.244,4.552-3.111,7.377c-0.72-10.443-2.484-11.902-5.411-8.901
			C269.087,227.145,276.031,237.394,276.252,237.616z"/>
		<path fill="#989936" d="M271.498,252.066c-0.397,2.327-0.684,4.773-0.84,7.322c-1.237-5.217-1.847-8.292-6.315-9.676
			C269.162,248.345,268.811,250.552,271.498,252.066z"/>
	</g>
	<g>
		<path fill="none" stroke="#00A651" stroke-miterlimit="10" d="M273.141,245.002c-0.665,2.17-1.228,4.542-1.644,7.063
			c-0.397,2.327-0.684,4.773-0.84,7.322c-0.102,1.588-0.157,3.213-0.157,4.866c7.784,0,6.704-1.496,6.704-1.496
			c-0.092-1.911-0.212-3.859-0.295-5.808c-0.046-0.896-0.083-1.782-0.111-2.678c-0.25-7.756,0.102-15.207,3.37-19.648
			c1.108-1.505,2.548-2.668,4.414-3.379"/>
		<path fill="none" stroke="#00A651" stroke-miterlimit="10" d="M273.141,244.993c-0.72-10.443-2.484-11.902-5.411-8.901
			c1.357-8.947,8.3,1.302,8.522,1.523c0.009,0.009,0.009,0.009,0.009,0l3.906-2.992l4.414-3.379c-3.121,0-5.993,2.364-8.319,6.371
			h-0.009C275.062,239.675,274.009,242.168,273.141,244.993"/>
		<line fill="none" stroke="#00A651" stroke-miterlimit="10" x1="273.141" y1="244.993" x2="273.141" y2="245.002"/>
		<path fill="none" stroke="#00A651" stroke-miterlimit="10" d="M270.657,259.388c-1.237-5.217-1.847-8.292-6.315-9.676
			c4.82-1.367,4.469,0.84,7.156,2.354l4.45,1.856l0.85,0.351l0.258,0.111c0.526,0.388,3.029,3.176,8.799-2.825
			c-1.597,5.152-8.061,6.343-8.651,6.343l-0.295-0.951l-0.96-3.028l-2.807-8.919"/>
	</g>
</g>
</svg>
