<?xml version="1.0" encoding="utf-8"?>
<!-- Generator: Adobe Illustrator 16.0.0, SVG Export Plug-In . SVG Version: 6.00 Build 0)  -->
<!DOCTYPE svg PUBLIC "-//W3C//DTD SVG 1.1//EN" "http://www.w3.org/Graphics/SVG/1.1/DTD/svg11.dtd">
<svg version="1.1" id="Layer_1" xmlns="http://www.w3.org/2000/svg" xmlns:xlink="http://www.w3.org/1999/xlink" x="0px" y="0px"
	 width="612px" height="792px" viewBox="0 0 612 792" enable-background="new 0 0 612 792" xml:space="preserve">
<g>
	<g id="XMLID_1_">
		<g>
			<linearGradient id="SVGID_1_" gradientUnits="userSpaceOnUse" x1="307.1084" y1="308.8779" x2="346.6738" y2="308.8779">
				<stop  offset="0" style="stop-color:#FFFFFF"/>
				<stop  offset="1" style="stop-color:#000000"/>
			</linearGradient>
			<path fill="url(#SVGID_1_)" d="M307.114,288.568c13.31,1.47,36.08,4.21,39.56,40.62c-0.88-6.63-6.14-26.53-37.31-16.88
				C307.734,303.628,307.034,295.738,307.114,288.568z"/>
			<linearGradient id="SVGID_2_" gradientUnits="userSpaceOnUse" x1="276.3442" y1="236.7231" x2="296.2139" y2="236.7231">
				<stop  offset="0" style="stop-color:#FFFFFF"/>
				<stop  offset="1" style="stop-color:#000000"/>
			</linearGradient>
			<path fill="url(#SVGID_2_)" d="M295.844,251.828c-1.9,2.85-3.75,5.9-5.52,9.18c-34.21-16.29,5.02-47.88,5.89-48.57
				C278.014,230.918,283.064,247.068,295.844,251.828z"/>
			<linearGradient id="SVGID_3_" gradientUnits="userSpaceOnUse" x1="215.5239" y1="343.7134" x2="269.1938" y2="343.7134">
				<stop  offset="0" style="stop-color:#FFFFFF"/>
				<stop  offset="1" style="stop-color:#000000"/>
			</linearGradient>
			<path fill="url(#SVGID_3_)" d="M269.194,328.718c-1.87,11.11-3.41,23.27-4.57,36.57c5.2-56.9-48.2-24.71-49.1-24.17
				C244.864,316.218,258.614,320.098,269.194,328.718z"/>
			<linearGradient id="SVGID_4_" gradientUnits="userSpaceOnUse" x1="262.4639" y1="308.9639" x2="399.8535" y2="308.9639">
				<stop  offset="0" style="stop-color:#FFFFFF"/>
				<stop  offset="1" style="stop-color:#000000"/>
			</linearGradient>
			<path fill="url(#SVGID_4_)" d="M307.114,288.568c-0.08,7.17,0.62,15.06,2.25,23.74c4.489,23.88,15.979,53.75,37.489,91.1h-84.39
				c0.41-13.65,1.14-26.34,2.16-38.12c1.16-13.3,2.7-25.46,4.57-36.57c4.93-29.3,12.21-51.29,21.13-67.71
				c1.77-3.28,3.62-6.33,5.52-9.18c27.93-41.83,68.62-38.93,104.01-35.54C391.794,216.878,307.884,214.528,307.114,288.568z"/>
		</g>
		<g>
			<line fill="none" stroke="#231F20" stroke-miterlimit="10" x1="262.464" y1="403.408" x2="346.854" y2="403.408"/>
			<path fill="none" stroke="#231F20" stroke-miterlimit="10" d="M262.464,403.408c0.41-13.65,1.14-26.34,2.16-38.12
				c1.16-13.3,2.7-25.46,4.57-36.57c4.93-29.3,12.21-51.29,21.13-67.71c1.77-3.28,3.62-6.33,5.52-9.18
				c27.93-41.83,68.62-38.93,104.01-35.54"/>
			<path fill="none" stroke="#231F20" stroke-miterlimit="10" d="M346.854,403.408c-21.51-37.35-33-67.22-37.489-91.1
				c-1.63-8.68-2.33-16.57-2.25-23.74c0.77-74.04,84.68-71.69,92.739-72.28"/>
			<path fill="none" stroke="#231F20" stroke-miterlimit="10" d="M346.684,329.258c0.07,0.65,0.12,1.32,0.17,1.99"/>
			<path fill="none" stroke="#231F20" stroke-miterlimit="10" d="M307.104,288.568h0.011c13.31,1.47,36.08,4.21,39.56,40.62"/>
			<path fill="none" stroke="#231F20" stroke-miterlimit="10" d="M309.364,312.308c31.17-9.65,36.43,10.25,37.31,16.88
				c0,0.03,0.01,0.05,0.01,0.07c0.16,1.23,0.17,1.99,0.17,1.99"/>
			<path fill="none" stroke="#231F20" stroke-miterlimit="10" d="M269.194,328.718c-10.58-8.62-24.33-12.5-53.67,12.4"/>
			<path fill="none" stroke="#231F20" stroke-miterlimit="10" d="M264.624,365.288c5.2-56.9-48.2-24.71-49.1-24.17
				c-0.01,0.01-0.01,0.01-0.01,0.01"/>
			<path fill="none" stroke="#231F20" stroke-miterlimit="10" d="M295.844,251.828c-12.78-4.76-17.83-20.91,0.37-39.39"/>
			<path fill="none" stroke="#231F20" stroke-miterlimit="10" d="M290.324,261.008c-34.21-16.29,5.02-47.88,5.89-48.57
				c0.01-0.01,0.01-0.01,0.01-0.01"/>
		</g>
	</g>
</g>
</svg>
