<?xml version="1.0" encoding="utf-8"?>
<!-- Generator: Adobe Illustrator 16.0.0, SVG Export Plug-In . SVG Version: 6.00 Build 0)  -->
<!DOCTYPE svg PUBLIC "-//W3C//DTD SVG 1.1//EN" "http://www.w3.org/Graphics/SVG/1.1/DTD/svg11.dtd">
<svg version="1.1" id="Layer_1" xmlns="http://www.w3.org/2000/svg" xmlns:xlink="http://www.w3.org/1999/xlink" x="0px" y="0px"
	 width="1297.867px" height="1417.864px" viewBox="0 0 1297.867 1417.864" enable-background="new 0 0 1297.867 1417.864"
	 xml:space="preserve">
<rect x="342.01" y="49.054" fill="none" width="946.005" height="196.993"/>
<text transform="matrix(1 0 0 1 342.0098 241.5801)" font-family="'AgencyFB-Reg'" font-size="252">THORNPOST</text>
<g>
	<g id="XMLID_1_">
		<g>
			<linearGradient id="SVGID_1_" gradientUnits="userSpaceOnUse" x1="226.4302" y1="148.5103" x2="265.9966" y2="148.5103">
				<stop  offset="0" style="stop-color:#FFFFFF"/>
				<stop  offset="1" style="stop-color:#000000"/>
			</linearGradient>
			<path fill="url(#SVGID_1_)" d="M226.437,128.2c13.31,1.47,36.08,4.21,39.56,40.62c-0.88-6.63-6.14-26.53-37.31-16.88
				C227.056,143.26,226.356,135.37,226.437,128.2z"/>
			<linearGradient id="SVGID_2_" gradientUnits="userSpaceOnUse" x1="181.7861" y1="148.5962" x2="319.1763" y2="148.5962">
				<stop  offset="0" style="stop-color:#FFFFFF"/>
				<stop  offset="1" style="stop-color:#000000"/>
			</linearGradient>
			<path fill="url(#SVGID_2_)" d="M226.437,128.2c-0.08,7.17,0.62,15.06,2.25,23.74c4.49,23.88,15.98,53.75,37.49,91.1h-84.39
				c0.41-13.65,1.14-26.34,2.17-38.12c1.15-13.31,2.69-25.47,4.56-36.57c4.93-29.3,12.22-51.29,21.13-67.71
				c1.78-3.28,3.62-6.33,5.52-9.18c27.93-41.83,68.62-38.93,104.01-35.54C311.116,56.51,227.207,54.16,226.437,128.2z"/>
			<linearGradient id="SVGID_3_" gradientUnits="userSpaceOnUse" x1="195.6665" y1="76.355" x2="215.5361" y2="76.355">
				<stop  offset="0" style="stop-color:#FFFFFF"/>
				<stop  offset="1" style="stop-color:#000000"/>
			</linearGradient>
			<path fill="url(#SVGID_3_)" d="M215.167,91.46c-1.9,2.85-3.74,5.9-5.52,9.18c-34.21-16.29,5.02-47.88,5.89-48.57
				C197.336,70.55,202.386,86.7,215.167,91.46z"/>
			<linearGradient id="SVGID_4_" gradientUnits="userSpaceOnUse" x1="134.8462" y1="183.3452" x2="188.5161" y2="183.3452">
				<stop  offset="0" style="stop-color:#FFFFFF"/>
				<stop  offset="1" style="stop-color:#000000"/>
			</linearGradient>
			<path fill="url(#SVGID_4_)" d="M188.516,168.35c-1.87,11.1-3.41,23.26-4.56,36.57h-0.01c5.2-56.9-48.2-24.71-49.1-24.17
				C164.187,155.85,177.937,159.73,188.516,168.35z"/>
		</g>
		<g>
			<line fill="none" stroke="#231F20" stroke-miterlimit="10" x1="181.786" y1="243.04" x2="266.176" y2="243.04"/>
			<path fill="none" stroke="#231F20" stroke-miterlimit="10" d="M181.786,243.04c0.41-13.65,1.14-26.34,2.17-38.12
				c1.15-13.31,2.69-25.47,4.56-36.57c4.93-29.3,12.22-51.29,21.13-67.71c1.78-3.28,3.62-6.33,5.52-9.18
				c27.93-41.83,68.62-38.93,104.01-35.54"/>
			<path fill="none" stroke="#231F20" stroke-miterlimit="10" d="M266.176,243.04c-21.51-37.35-33-67.22-37.49-91.1
				c-1.63-8.68-2.33-16.57-2.25-23.74c0.77-74.04,84.68-71.69,92.74-72.28"/>
			<path fill="none" stroke="#231F20" stroke-miterlimit="10" d="M266.006,168.89c0.06,0.65,0.12,1.32,0.17,1.99"/>
			<path fill="none" stroke="#231F20" stroke-miterlimit="10" d="M226.426,128.2h0.01c13.31,1.47,36.08,4.21,39.56,40.62"/>
			<path fill="none" stroke="#231F20" stroke-miterlimit="10" d="M228.687,151.94c31.17-9.65,36.43,10.25,37.31,16.88
				c0,0.03,0.01,0.05,0.01,0.07c0.16,1.23,0.17,1.99,0.17,1.99"/>
			<path fill="none" stroke="#231F20" stroke-miterlimit="10" d="M188.516,168.35c-10.58-8.62-24.33-12.5-53.67,12.4"/>
			<path fill="none" stroke="#231F20" stroke-miterlimit="10" d="M183.946,204.92c5.2-56.9-48.2-24.71-49.1-24.17
				c-0.01,0.01-0.01,0.01-0.01,0.01"/>
			<path fill="none" stroke="#231F20" stroke-miterlimit="10" d="M215.167,91.46c-12.78-4.76-17.83-20.91,0.37-39.39"/>
			<path fill="none" stroke="#231F20" stroke-miterlimit="10" d="M209.646,100.64c-34.21-16.29,5.02-47.88,5.89-48.57
				c0.01-0.01,0.01-0.01,0.01-0.01"/>
		</g>
	</g>
</g>
</svg>
