<?xml version="1.0" encoding="utf-8"?>
<!-- Generator: Adobe Illustrator 16.0.0, SVG Export Plug-In . SVG Version: 6.00 Build 0)  -->
<!DOCTYPE svg PUBLIC "-//W3C//DTD SVG 1.1//EN" "http://www.w3.org/Graphics/SVG/1.1/DTD/svg11.dtd">
<svg version="1.1" id="Layer_1" xmlns="http://www.w3.org/2000/svg" xmlns:xlink="http://www.w3.org/1999/xlink" x="0px" y="0px"
	 width="612px" height="792px" viewBox="0 0 612 792" enable-background="new 0 0 612 792" xml:space="preserve">
<g>
	<g>
		<g id="XMLID_1_">
			<g>
				<path d="M23.05,420.38c-0.1-2.58-0.27-5.7-0.37-9.28c-0.11-3.59-0.25-7.63-0.39-12.04c-0.04-2.21-0.09-4.5-0.14-6.879
					c-0.03-1.19-0.05-2.4-0.08-3.62c0.01-1.23,0.01-2.48,0.01-3.74c0.02-2.53,0.03-5.12,0.04-7.77c0.09-2.64,0.18-5.35,0.27-8.1
					c0.03-2.75,0.35-5.52,0.53-8.34c0.11-1.4,0.2-2.82,0.34-4.24c0.18-1.4,0.36-2.82,0.54-4.24c0.18-1.42,0.36-2.84,0.54-4.27
					c0.18-1.43,0.51-2.82,0.76-4.24c0.56-2.81,0.98-5.69,1.77-8.42l1.05-4.15l0.52-2.08c0.19-0.68,0.43-1.34,0.64-2.01
					c0.88-2.66,1.69-5.35,2.62-7.94c1.01-2.54,2.02-5.06,3.01-7.55c1.02-2.47,2.2-4.78,3.27-7.12c0.54-1.16,1.09-2.31,1.63-3.44
					c0.58-1.1,1.16-2.19,1.73-3.27c1.14-2.15,2.26-4.26,3.35-6.32c2.33-3.95,4.5-7.73,6.58-11.13c2.13-3.35,4.08-6.42,5.81-9.15
					c1.2-1.87,2.34-3.54,3.35-5.02c-0.22,0.35-0.44,0.71-0.65,1.08c-0.69,1.21-1.43,2.5-2.22,3.89c-0.74,1.44-1.53,2.96-2.36,4.57
					c-0.78,1.66-1.6,3.4-2.45,5.23c-1.6,3.72-3.3,7.79-4.82,12.28c-1.59,4.45-2.99,9.32-4.3,14.4c-1.31,5.1-2.38,10.48-3.33,16
					c-0.9,5.53-1.58,11.21-2.07,16.93c-0.43,5.72-0.67,11.47-0.68,17.14c0.03,4.13,0.16,8.22,0.42,12.2l-14.6,58.72
					c0,0,0-0.05-0.01-0.14c0-0.011,0-0.03,0-0.051C23.33,427.54,23.22,424.76,23.05,420.38z"/>
				<path d="M28.13,306.74c0.67,0.97,1.43,1.67,2.03,2.37c0.68,0.57,1.26,1.09,1.75,1.48c0.52,0.3,0.93,0.53,1.21,0.69
					c0.16,0.1,0.28,0.16,0.35,0.2c-0.92,2.26-1.84,4.55-2.77,6.86c-0.62,1.7-1.19,3.44-1.76,5.18l-3.1-20.27
					c0.06,0.1,0.12,0.2,0.18,0.3C26.7,304.76,27.44,305.8,28.13,306.74z"/>
				<path d="M22.01,414.54l-3.94-20.1c0.4,0.66,0.79,1.24,1.16,1.72c0.66,0.88,1.28,1.42,1.71,1.72c0.06,0.03,0.11,0.07,0.16,0.101
					c0.02,0.01,0.03,0.02,0.05,0.029c0.13,0.09,0.25,0.17,0.38,0.23c0.02,0.01,0.04,0.02,0.06,0.029c0,0.28,0.01,0.561,0.02,0.83
					c0.16,4.42,0.44,8.45,0.62,12.03c0.06,1.18,0.13,2.311,0.19,3.39L22.01,414.54z"/>
				<path d="M553.84,341.83l-4.25-0.19c0-2.48-1.27-4.28-3.82-5.39c-0.01-0.01-0.029-0.01-0.039-0.02l6.39,1.72l1.83-0.85l5.02,0.29
					l4.71,0.56l3.141-1.62h0.84l0.89-3.32l1.46,0.64l0.32,1.41l0.68-0.42c0.561,0.99,1.37,1.81,2.46,2.47l1.73-0.78
					c1.149,0,2.14,0.63,2.979,1.91l0.63-1.13l3.98-1.06l2.45,0.28c0.7,0.42,1.35,0.63,1.939,0.63h0.53c0.66-0.32,1.2-0.49,1.62-0.49
					l1.51,0.35c0.32,0,0.53-0.16,0.63-0.49l2.15-0.42l2.46,0.77c0.35,0.47,0.84,0.56,1.49,0.25c0.649-0.31,1.069-0.46,1.279-0.46
					l1.94,0.5l5.33-0.14l2.36,0.56h2.25l-0.521,1.55l-1.36,0.28h-3.25l-1.51,0.49l-1.26-0.49l-6.65,0.78l-2.25-0.78
					c-1.85,0.99-3.17,1.48-3.979,1.48h-3.19l-1.939-0.99c0,0.47-0.261,0.8-0.78,0.99c-0.98,0-1.93,0.19-2.85,0.57
					c-0.931,0.37-1.79,0.56-2.591,0.56l-2.149-1.13l-1.83,1.13l-0.21,0.92h-0.94l-0.58,1.41l-0.42,9.38l0.42,1.34l-0.21,1.55
					l0.11,4.17l-0.32,4.23v1.27c0,0.61-0.09,1.07-0.279,1.38c-0.19,0.3-0.341,1.07-0.45,2.29l0.84,1.83l-0.21,2.33l-0.73,0.7
					c0,0.57,0.21,1.3,0.62,2.19l-0.62,1.41v1.62l-0.84,1.7l0.53,4.09l-0.21,5.92l-0.79,3.74c0.14,0.38,0.21,0.66,0.21,0.85
					c0,0.28-0.06,0.6-0.18,0.95c-0.13,0.351-0.141,0.71-0.051,1.061c0.08,0.35,0.12,0.649,0.12,0.88c0,0.28-0.17,0.91-0.52,1.87
					c-0.351,0.97-0.47,1.56-0.37,1.8c0.04,0.1,0.16,0.85,0.37,2.26c-0.351,1.271-0.521,2.23-0.521,2.891
					c0,0.659,0.07,1.72,0.21,3.18c-0.42,0-0.8-0.07-1.13-0.21c-0.33-0.15-0.529-0.22-0.6-0.22c-0.561,0-0.84-1.38-0.84-4.16
					l0.21-2.19c0-0.8-0.07-1.95-0.21-3.45c-0.141-1.51-0.21-2.609-0.21-3.319l0.63-10.16c-0.561-1.27-0.84-1.97-0.84-2.11
					c0-0.52,0.18-0.97,0.529-1.34c-0.279-0.48-0.42-0.9-0.42-1.27c0-0.29,0.21-0.57,0.63-0.85c-0.279-0.94-0.42-1.58-0.42-1.91
					c0-0.51,0.12-1.21,0.36-2.08c0.25-0.86,0.37-1.37,0.37-1.51l-0.101-2.33c0-0.28,0.33-1.34,0.99-3.18c-0.59,0-0.89-0.63-0.89-1.9
					c0-2.21,0.21-3.46,0.63-3.74v-5.93l-0.63-2.89l0.63-6.07l-0.63-4.3l0.63-3.38c-0.28-1.32-0.771-1.98-1.47-1.98
					c-0.38,0-0.71,0.24-0.99,0.71l-1.521,0.21c-0.56,0.04-1.109,0.3-1.67,0.77l-1.31-0.14l-1.26,0.14v0.5h-0.891
					c-1.18,0-2.14-0.31-2.88-0.92l-0.21,0.92L553.84,341.83z"/>
				<path d="M545.77,336.25c2.551,1.11,3.82,2.91,3.82,5.39l-1.97-0.09l-2.46,0.99c-1.851-2.16-2.78-3.6-2.78-4.31
					c0-0.18,0.14-0.96,0.42-2.32h1.73l1.2,0.32C545.74,336.24,545.76,336.24,545.77,336.25z"/>
				<path d="M504.01,358.44l1.62,0.56l1.2,1.13c0.35,0.33,1.35,0.92,2.99,1.77l0.21,0.7h2.46l3.189,2.9l1.311-0.57
					c0.8,0.33,1.64,0.89,2.54,1.69c0.88,0.8,1.51,1.2,1.85,1.2c0.32,0,0.7-0.19,1.15-0.56v0.98l3.67,0.43l1.1,0.91v-0.49h0.73
					l1.62,1.48c1.92,0,3.229,0.28,3.93,0.85c0.42-0.1,0.96-0.14,1.62-0.14c0.91,0,1.7,0.43,2.38,1.3s1.18,1.31,1.49,1.31h0.21
					l1.149-0.43l0.79,0.43h1.46l2.931,2.89l2.87,0.57l0.84,1.76l3.67,3.88c0.89,1.01,1.41,2.67,1.56,5l-2.899,0.22
					c-0.32-2.16-3.04-4.68-8.181-7.54l-4.71-2.61c-1.229,0-2.95-0.57-5.189-1.7c-0.971-1.08-2.181-1.62-3.61-1.62
					c-0.9,0-1.58,0.09-2.04,0.28l-0.62-1.13l-1.52,0.85l-1.21-1.83l-1.67,0.56l-3.04-2.05h-1.931l-1.26-1.26h-1.729l-0.73-1.49
					l-0.21,0.71h-1.2l-1.52-2.4c-3.42-0.05-5.63-0.87-6.641-2.47l-1.149,0.43l-0.74-2.33l-1.73-2.47
					c-0.47-1.53-0.88-2.78-1.239-3.74l2.6-0.15l1.11,0.71L504.01,358.44z"/>
				<path d="M499.78,356.4c-0.311-0.85-0.58-1.47-0.811-1.89c0-0.01-0.01-0.02-0.02-0.03l-0.07-0.16l0.42-4.27l1.73-3.03
					c0.66-0.38,1.149-1.25,1.46-2.61c1.08-0.94,1.92-1.46,2.51-1.56c0.18,0.38,0.39,0.57,0.63,0.57l1.05-2.05l0.471,0.99l0.21-0.99
					l3.93-1.83l-1.16-0.35l1.05,0.14c1.221,0,1.971-0.52,2.25-1.56c1.641,0,3.471-0.32,5.49-0.98l-0.52-0.64
					c0.18-0.19,0.489-0.28,0.939-0.28c0.53,0,0.87,0.09,1.05,0.28l-0.31-0.42l0.88,0.14c0.7,0,1.16-0.42,1.37-1.27h0.57l1.26-0.14
					c0.21,0,0.31,0.04,0.31,0.14v0.56c0.49-0.47,0.96-0.7,1.41-0.7h0.63l6.34-0.85l0.311,0.85v-0.99l1.41-1.2
					c0.35,0.99,1.06,1.48,2.149,1.48h0.521c1.71,0,2.859,0.24,3.45,0.71l-0.78,0.14c1.35,0,3.29,0.54,5.82,1.63l-1.2-0.32h-1.73
					c-0.28,1.36-0.42,2.14-0.42,2.32c0,0.71,0.93,2.15,2.78,4.31l2.46-0.99l1.97,0.09v0.01c0,1.84-0.91,2.94-2.72,3.32l-0.42-1.27
					l-3.51-1.63h-1.511l-1.21-1.97l-2.25,0.42l-0.729-0.99l-0.94,1.56l-1.52-1.56l-3.24,0.57l-3.61-1.34l-1,0.77
					c-2.27,0.15-3.609,0.43-4.029,0.85c-0.141-0.09-0.4-0.14-0.78-0.14c-0.53,0-1.021,0.38-1.47,1.13l-2.511,0.28l-6.649,3.31
					l-1.67-0.56l-2.46,2.61h-1.42l-1.04,2.05l-2.721,2.61c-0.279,0.18-0.42,0.37-0.42,0.56v0.14c0.351,1.55,0.561,2.85,0.62,3.88
					L499.78,356.4z"/>
				<path fill="#FDFEFF" d="M498.95,354.48c-0.021-0.05-0.05-0.09-0.07-0.13v-0.03L498.95,354.48z"/>
				<path fill="#FDFEFF" d="M489.13,386.22l-0.02,0.05l-0.021-0.01C489.11,386.24,489.12,386.23,489.13,386.22z"/>
				<path d="M486.86,392.83l-0.271,0.28l-0.17-0.45c0.24-0.28,0.65-0.65,1.2-1.1c0.56-0.44,0.84-0.85,0.84-1.23
					c0.7-1.03,1.521-1.69,2.46-1.98c0-1.73-0.38-2.6-1.15-2.6c-0.159,0-0.369,0.16-0.64,0.47l0.5-1.36l1.73-1.77l2.88-4.3
					l1.729-0.84l0.84-2.47l1.41-1.34l-0.319-2.61l0.739-2.26l-0.42-4.23l0.62-1.41l-0.939-3.32l0.109-1.06
					c0-0.35-0.05-0.73-0.149-1.13l2.29-0.06c0.069,0.24,0.14,0.5,0.21,0.77l1.409,5.15c0.351,1.22,0.53,2.02,0.53,2.4v0.99l-1,3.17
					l-0.31,4.38l-0.94,1.27l-1.1,4.65c-0.11,0.61-0.21,1.06-0.311,1.34c-0.109,0.29-0.34,0.52-0.68,0.71l-1.15,0.63l-6.34,6.85
					l-1.46,0.98c-0.46,0.28-1.17,1.06-2.149,2.33V392.83z"/>
				<path d="M488.46,401.19l-2.35-0.841c-1.021-1.729-1.73-3.239-2.11-4.53l2.59-2.71l0.141,0.39v2.47
					c1.189,0.9,2.27,2.169,3.25,3.81l1.31,0.279c0.42,0.101,1.11,0.57,2.09,1.421l1.93-0.29l-0.199-0.841l2.87,0.28l-0.62,0.561
					l2.35,0.569l0.32,0.7H505v0.5c0.45-0.52,0.94-0.78,1.46-0.78c0.28,0,0.62,0.11,1.03,0.32c0.39,0.21,1.17,0.36,2.319,0.46
					l0.221,0.84l1.46,0.15h1.62l1.1,0.56l-0.47-0.56c0.979-0.57,1.779-0.851,2.41-0.851c0.35,0,0.699,0.23,1.04,0.7
					c0.63-0.56,1.38-0.84,2.25-0.84c0.77,0,1.63,0.19,2.569,0.56c0.45-0.47,0.96-0.699,1.521-0.699c0.52,0,1.06,0.229,1.62,0.699
					l3.819-1.479l0.78-1.41l3.3,0.561l2.67-0.841l-0.42-0.14c0.141-0.19,1.36-0.33,3.67-0.43c0.2-0.33,0.38-0.49,0.521-0.49
					l0.729,0.14l2.721-1.55l0.529,0.28v-0.7h1.83v-0.29c0-0.89,0.55-1.34,1.67-1.34h0.79l0.42-0.56l-0.319-0.57
					c0.56-0.8,0.979-1.2,1.26-1.2c0.8,0,1.2-0.37,1.2-1.12c0.91-1.84,1.359-3.09,1.359-3.74c0-0.14-0.01-0.28-0.029-0.43l2.899-0.22
					c0.04,0.51,0.061,1.05,0.061,1.63l0.1,2.19c0,0.75-0.43,1.94-1.31,3.56c-0.87,1.63-1.931,2.79-3.19,3.49
					c-0.21,0.62-0.64,0.92-1.31,0.92h-0.311c-0.979,1.319-2.229,1.979-3.77,1.979c-0.45,0.8-1.08,1.48-1.88,2.04l-2.25-0.28
					l-1.94,2.33l-0.89-0.779l-1.36,0.64c-1.54,0.09-2.35,0.28-2.46,0.56l-3.35-0.42c-1.46,0.841-2.53,1.271-3.19,1.271l-2.93-0.29
					l-2.04,1.27l-1.15-0.279c-0.21-0.28-0.42-0.42-0.63-0.42c-0.35,0-0.64,0.239-0.89,0.699h-3.4l-1-0.84l-0.729,0.84l-5.131-0.279
					l-2.46-0.561c-0.729,0.471-1.31,0.7-1.72,0.7c-0.77,0-1.78-0.61-3.04-1.83l-1.78,0.99l-0.569-0.851h-1.16
					c-1.32,0-2.58-0.289-3.76-0.88c-1.19-0.59-1.94-0.88-2.25-0.88c-0.141,0-0.351,0.09-0.63,0.28L488.46,401.19z"/>
				<path d="M486.42,392.66l0.17,0.45l-2.59,2.71c-0.23-0.78-0.35-1.48-0.35-2.1c0-0.36,0.1-1.04,0.29-2.05
					c0.25-0.11,0.55-0.22,0.88-0.32l0.42-1.6c0.62-0.04,1.01-0.6,1.18-1.68l1.62-0.28l-0.73-0.49l1.15-0.14
					c0.24-0.38,0.45-0.68,0.63-0.9l0.021,0.01l0.02-0.05c0.271-0.31,0.48-0.47,0.64-0.47c0.771,0,1.15,0.87,1.15,2.6
					c-0.939,0.29-1.76,0.95-2.46,1.98c0,0.38-0.28,0.79-0.84,1.23C487.07,392.01,486.66,392.38,486.42,392.66z"/>
				<path fill="#FDFEFF" d="M488.04,387.79l-1.62,0.28c-0.17,1.08-0.56,1.64-1.18,1.68l0.31-1.15l0.32,0.14l0.21-0.99
					c0.83-0.33,1.51-0.96,2.04-1.9l0.97,0.41c-0.18,0.22-0.39,0.52-0.63,0.9l-1.15,0.14L488.04,387.79z"/>
				<path fill="#FDFEFF" d="M485.24,389.75l-0.42,1.6c-0.33,0.1-0.63,0.21-0.88,0.32c0.119-0.57,0.26-1.26,0.439-2.05l0.78,0.14
					C485.19,389.76,485.22,389.76,485.24,389.75z"/>
				<path d="M444.52,401.16l1.091-1.94c0.85,0.721,1.77,1.3,2.79,1.721c2.02,0.85,3.18,1.229,3.5,1.13l3.449-1.2l0.74,1.06h1.72
					v0.99h1.681l0.47-1.77l1.68-0.28l4.29,0.71c0.38-0.94,0.82-1.41,1.311-1.41l0.41,0.14c1.58-1.369,2.729-2.05,3.46-2.05h0.42
					l2.14-1.83c0.28-0.19,1.03-0.33,2.25-0.43l1.37-1.62c2.58-0.09,4.06-0.33,4.44-0.7c0.39-0.38,0.729-0.78,1.02-1.2
					c0.21-0.29,0.6-0.56,1.19-0.81c-0.19,1.01-0.29,1.69-0.29,2.05c0,0.62,0.119,1.32,0.35,2.1l-1.53,1.6l-1.939,1.13l-4.61,3.38
					c-0.66-0.42-1.3-0.63-1.93-0.63c-0.49,0-0.86,0.23-1.13,0.7c-0.261,0.47-0.53,0.78-0.811,0.92l-0.939-0.28l-1.73,2.19
					l-0.89-0.64l-0.42,0.779h-1.83l-0.94,1.271l-3.189-0.29l-5.181,1.27c-0.21-0.09-0.529-0.14-0.949-0.14l-1.62,0.29l-1.83-0.43
					l-0.42-0.561l-4.5-0.99l-2.141-1.479h-0.95V401.16z"/>
				<path d="M450.38,355.37c-0.52,1.6-1.16,2.89-1.93,3.88l-0.34-0.12l0.239-0.69L446.1,354v-1.63l-0.17-0.15l3.301-7.07
					c0.63-0.29,1.09-0.79,1.359-1.52c0.28-0.73,1.03-1.68,2.25-2.86l-0.21-1.27h1.311l-0.311-0.84c0.8-1.13,1.9-2,3.29-2.61
					l0.79-1.2h-0.11c0-0.05,0.69-0.19,2.04-0.43l4.931-0.84l3.08,0.56l2.359-0.14h2.771c0.729,0.19,1.239,0.28,1.52,0.28
					c0.98,0,1.73-0.42,2.25-1.27c0.351,0.47,0.75,0.71,1.2,0.71c0.21,0,0.39-0.05,0.52-0.14c0.04,0.94,0.391,1.41,1.051,1.41
					c0.279,0.42,1.069,0.73,2.359,0.91l0.78,0.99l1.57,0.28h2.04l2.93,2.05h-0.67l1.979,1.9c0.25,0.24,0.601,0.9,1.051,1.98
					l1.569,0.99l0.78,1.76l1.84,0.99l3.33,7.48v0.03c0.021,0.04,0.05,0.08,0.07,0.13c0.01,0.01,0.02,0.02,0.02,0.03l0.13,0.3
					c0.221,0.45,0.57,1.54,1.051,3.25l-2.29,0.06c-0.03-0.14-0.07-0.28-0.11-0.42c-0.18-0.56-0.91-1.38-2.2-2.46l-0.79-2.75
					l-0.62-0.43l-0.319-1.62l-3.03-4.3l-2.67-3.04l-0.84,0.43l-3.87-3.32c-0.351-0.28-1.09-0.54-2.23-0.78
					c-1.13-0.23-1.989-0.61-2.59-1.13c0,0.1-0.1,0.14-0.31,0.14c-0.141,0-0.681-0.09-1.62-0.28l-0.53,0.5l-1.62-0.78l-1.05,0.78
					c-0.94-0.43-1.58-0.64-1.93-0.64c-0.21,0-0.521,0.11-0.92,0.32c-0.4,0.21-0.7,0.31-0.92,0.31c-0.341,0-0.591-0.11-0.73-0.35
					c-0.729,0.52-1.31,1.12-1.75,1.8c-0.43,0.68-1.14,1.31-2.12,1.87l-1.52-0.49l-1.46,1.34l-1.73-0.29l-0.63,0.36
					c-0.21,0.14-0.4,0.31-0.57,0.52c-0.18,0.21-0.399,0.46-0.66,0.75c-0.26,0.28-0.579,0.6-0.939,0.95
					c-0.37,0.35-0.771,0.74-1.2,1.16c-0.439,0.43-0.92,0.85-1.439,1.27c-0.25,0.24-0.721,1.2-1.421,2.89l0.11,2.05l-1.939,1.13
					C451.48,353.75,451.05,354.34,450.38,355.37z"/>
				<path d="M438.09,389.94l-0.21-5.78l1.46-6.21l-0.21-3.03l1-1.2l-0.79-2.47l1.15-1.24l0.01-0.01c0.77-0.58,1.31-1.26,1.62-2.03
					c0.35,0,0.75-0.4,1.18-1.2c0.44-0.8,1.061-1.32,1.86-1.56v-0.98l1.62-2.19c0.42-0.56,0.729-1.18,0.95-1.83l0.38-1.08l0.34,0.12
					v1.77c-0.84,0.47-1.33,1.05-1.47,1.76l-0.99,4.16l-1.78,1.55c-0.25,5.88-0.62,9.29-1.13,10.23c-0.5,0.95-0.85,1.8-1.04,2.58
					c-0.2,0.77-0.33,1.62-0.42,2.53c-0.09,0.92-0.34,2.23-0.76,3.92l0.63,1.7l0.31,2.61l0.99,1.76c0.14,0.28,0.25,0.63,0.32,1.06
					l0.21,1.69c0.68,1.029,1.439,1.92,2.29,2.649l-1.091,1.94l-1.51,0.77l-0.729-1.41c-0.32-0.52-0.67-0.909-1.05-1.199
					l-1.681-1.051c-0.56-2.12-0.87-4.569-0.939-7.339L438.09,389.94z"/>
				<path fill="#FDFEFF" d="M443.22,361.62l-0.779,0.84l-0.521,2.19l-0.12-0.14v-0.74l0.79-1.77l-0.32-0.56l0.53-0.42l0.84-2.6
					c0.011,0.01,0.011,0.01,0.011,0.02L443.22,361.62z"/>
				<path d="M441.17,367.23l0.63-1.91v-0.81l0.12,0.14l0.521-2.19l0.779-0.84l0.431-3.18c0-0.01,0-0.01-0.011-0.02l1.41-4.32
					l0.88-1.88l0.17,0.15V354l2.25,4.44l-0.239,0.69l-0.38,1.08c-0.221,0.65-0.53,1.27-0.95,1.83l-1.62,2.19v0.98
					c-0.8,0.24-1.42,0.76-1.86,1.56c-0.43,0.8-0.83,1.2-1.18,1.2c-0.311,0.77-0.851,1.45-1.62,2.03l0.67-0.73V367.23z"/>
				<path d="M410.43,336.19c-0.34-0.73-0.52-1.57-0.52-2.51c0-0.03,0-0.06,0-0.09l0.399,0.02l3.551,0.84
					c0.18,0.33,0.479,0.6,0.92,0.81c0.439,0.22,0.649,0.44,0.649,0.67l0.79-1.05h0.42c0.771,0,1.15,0.19,1.15,0.56
					c0,0.24-0.04,0.4-0.11,0.49h1.521c1.92,0.76,3.52,1.18,4.819,1.28l0.311,0.84h2.93l1.94,1.77c0.21,0.18,0.96,0.37,2.25,0.56
					l0.52,1.13h0.53c1.84,0,3.14,0.96,3.87,2.89l1.36-0.99v1.77c0.659,0.23,1.569,0.94,2.72,2.11h1.26l0.99,2.05l3.229,2.88
					l-0.88,1.88l-1.41,4.32c-0.59-2.15-1.37-4.08-2.35-5.76l-1.1-0.29l-1.891-2.33l-3.97-2.25c-2.55-2.59-5.271-4.05-8.17-4.38v0.99
					l-1.83-1.69l-2.46,0.14l-1.46-1.34h-1.73l-1.52-1.13h-1.521c-0.729,0-1.319-0.37-1.779-1.13l-3.17-0.58l0.27-1.03
					C410.96,337.4,410.79,336.92,410.43,336.19z"/>
				<path d="M410.39,346.23c-0.18-1.88-1.39-2.81-3.64-2.81c-0.11,0-0.21,0.01-0.31,0.02l0.119-1.22l-1.25-1.83l0.25-1.02l0.87,0.73
					c1.4-0.75,2.48-1.29,3.25-1.62l1.011,0.19l-0.46,1.72l1.35,3.31L410.39,346.23z"/>
				<path fill="#FDFEFF" d="M409.55,349.94c0.37-1,0.63-1.8,0.76-2.41l0.12,1.32l0.53-0.28c0,0.66-0.25,1.76-0.74,3.31l-0.63,1.91
					v2.83c-0.609-1.44-0.91-2.52-0.91-3.25C408.68,352.61,408.97,351.47,409.55,349.94z"/>
				<path fill="#FDFEFF" d="M410.39,346.23c0.011,0.16,0.021,0.32,0.021,0.5c0,0.21-0.03,0.48-0.101,0.8l-0.09-0.94L410.39,346.23z"
					/>
				<path fill="#FDFEFF" d="M409.89,357.32l-0.3,0.38v-1.08C409.68,356.84,409.78,357.08,409.89,357.32z"/>
				<path d="M408.9,384.9c-0.67,0.59-1.37,1.03-2.12,1.31l-0.011-0.04l0.78-3.74l-0.02-0.19c0.13,0.09,0.27,0.15,0.42,0.19
					l2.67-2.19h2.25c1.01-1.32,2.229-1.97,3.67-1.97l0.729-0.92c0.351,0.19,0.851,0.28,1.521,0.28c1.42,0,2.86-0.8,4.29-2.4
					l1.72-0.14l1.36-1.62h1.42l0.31-0.71l5.65-2.18c1.01-0.14,1.52-0.48,1.52-0.99c0.28-0.38,0.46-0.82,0.53-1.34
					c0.34,0.09,0.75,0.14,1.2,0.14c0.97,0,1.59-0.85,1.83-2.54c1.12-0.19,1.729-0.5,1.83-0.92c0.109-0.42,0.38-0.75,0.84-0.99
					l0.51,0.57v0.81l-0.63,1.91v2.04L440.5,370l-0.01,0.01c-0.76,0.56-1.76,1.03-2.971,1.41c-0.869,1.65-2.149,2.47-3.819,2.47
					h-0.58v0.85h-2.14l-1.261,1.34l-1.2,0.14c0,0.75-0.25,1.13-0.729,1.13l-1,1.06h-2.46l-1.46,1.83l-4.4,1.2l-0.58,0.56
					l-2.449-0.28c-0.07,0.33-0.391,1.15-0.95,2.47c-0.311-0.33-1.34-0.59-3.08-0.77l-1,0.77L408.9,384.9z"/>
				<path d="M409.91,333.59l-2.69-0.12h-0.85l0.61-1.05l-0.211-0.99l1.62-1.06l0.32,1.06l1.521-0.43
					C410.03,331.95,409.92,332.82,409.91,333.59z"/>
				<path fill="#FDFEFF" d="M407.85,367.26l-0.42-3.03l1.36-1.77l0.1-3.88l0.7-0.88v3.49l-1.1,3.32l0.22,2.12l-0.95,6.56l0.42,1.69
					l-0.84,5.22l0.19,2.14c-0.641-0.38-1.011-1.24-1.101-2.56l0.79-1.56l-0.21-1.9l0.42-2.47l-0.42-3.17L407.85,367.26z"/>
				<path fill="#FDFEFF" d="M406.78,386.21l0.77,3.55l-0.74,1.55l-0.899-2.25l0.63-2.75C406.62,386.28,406.7,386.25,406.78,386.21z"
					/>
				<path d="M409.68,338.48c-0.77,0.33-1.85,0.87-3.25,1.62l-0.87-0.73l1.21-4.91l-0.52-0.78l0.12-0.21h0.85l2.69,0.12
					c0,0.03,0,0.06,0,0.09c0,0.94,0.18,1.78,0.52,2.51c0.36,0.73,0.53,1.21,0.53,1.45l-0.27,1.03L409.68,338.48z"/>
				<path d="M406.04,357.81l-0.521-5.29l0.921-9.08c0.1-0.01,0.199-0.02,0.31-0.02c2.25,0,3.46,0.93,3.64,2.81l-0.17,0.36l0.09,0.94
					c-0.13,0.61-0.39,1.41-0.76,2.41c-0.58,1.53-0.87,2.67-0.87,3.43c0,0.73,0.301,1.81,0.91,3.25v1.08l-0.7,0.88l-0.1,3.88
					l-1.36,1.77l0.42,3.03l-0.84,3.32l0.42,3.17l-0.42,2.47l0.21,1.9l-0.79,1.56l-1.46-0.51l0.34-0.97l-0.79-0.99l0.32-6.77
					l1.2-2.47l-0.16-1.62c-0.03-0.47-0.38-1.44-1.04-2.9L406.04,357.81z"/>
				<path d="M405.83,399.29l-0.53-1.41l0.95-2.47l-0.42-2.05l0.979-2.05l0.2,0.5l-0.58,3.46l0.79,3.95l-0.68,0.561l0.89,1.689v2.9
					l0.42,1.479v2.61l2.46-0.29c0.351,0.43,0.521,0.95,0.521,1.561c0,1.46-0.75,2.18-2.25,2.18h-0.63l-1.73,0.85l-1.21-2.979
					l0.82,0.229c0.24-0.7,0.62-1.29,1.15-1.76l-0.73-2.19L405.83,399.29z"/>
				<polygon fill="#FDFEFF" points="404.79,409.25 405.01,409.78 404.83,409.73 				"/>
				<path d="M402.1,390.13l0.28,0.06l0.67,1.83c0.21,0.52,0.32,1.3,0.32,2.33v2.82c0.03,0.85,0.06,1.71,0.08,2.58
					c0.01,0.87,0.06,1.72,0.13,2.57l0.729,0.279l0.48,6.65l-0.03-0.09l-1.939-5.641v-5.92l-1.101-2.899l0.79-1.12l-0.47-2.9
					L402.1,390.13z"/>
				<path d="M403.26,386.59l-1.62,0.57c-1.159,0-2.58-1.09-4.26-3.28l3.93-0.46l-0.529-0.43c0.14-0.18,0.35-0.28,0.63-0.28
					c0.38,0,0.63,0.1,0.729,0.28v-3.31l0.681-1.69l0.319-8.68l0.63-1.06l-0.22-6.63l0.42-3.6l0.221-7.97l0.67-2.26l0.84-0.77
					l-0.21-2.12c0-0.86,0.319-1.34,0.95-1.46l-0.921,9.08l0.521,5.29l-1.2,5.64c0.66,1.46,1.01,2.43,1.04,2.9l0.16,1.62l-1.2,2.47
					l-0.32,6.77l0.79,0.99l-0.34,0.97l-1.18,3.4l-0.21,4.02H403.26z"/>
				<path d="M401.52,387.37l-4.399-1.06l-1.15-2.26l1.41-0.17c1.68,2.19,3.101,3.28,4.26,3.28l1.62-0.57h0.32l0.21-4.02l1.18-3.4
					l1.46,0.51c0.09,1.32,0.46,2.18,1.101,2.56l0.02,0.19l-0.78,3.74l0.011,0.04c-0.08,0.04-0.16,0.07-0.24,0.1l-0.63,2.75
					l0.899,2.25l-0.979,2.05l0.42,2.05l-0.95,2.47l0.53,1.41l0.42,6.77l0.73,2.19c-0.53,0.47-0.91,1.06-1.15,1.76l-0.82-0.229
					l-0.22-0.53l-0.48-6.65l-0.729-0.279c-0.07-0.851-0.12-1.7-0.13-2.57c-0.021-0.87-0.05-1.73-0.08-2.58v-2.82
					c0-1.03-0.11-1.81-0.32-2.33l-0.67-1.83l-0.28-0.06l0.15-1.49L401.52,387.37z"/>
				<path d="M399.05,332.27l0.95,0.63c0.59-0.23,0.95-0.35,1.09-0.35c0.42,0,0.74,0.31,0.95,0.92h4.33l-0.12,0.21l0.52,0.78
					l-1.21,4.91l-1.59-1.32l-1.46,1.2l-1.21-1.06l-2.25,0.92v0.42h-0.939l-2.141,1.56l-1.47,0.28c-0.45,0.09-1.15,0.54-2.09,1.34
					c-0.94-1.6-1.521-3.34-1.73-5.22l1.101-2.05v-0.98c0.17-0.43,0.81-0.7,1.91-0.82c1.1-0.11,2.069-0.48,2.899-1.09
					c0.811,0.24,1.311,0.35,1.521,0.35C398.46,332.9,398.78,332.69,399.05,332.27z"/>
				<path d="M351.24,387.16c0.18-1.13,0.27-2.05,0.27-2.76c0-0.75-0.09-1.81-0.27-3.17l0.479,0.28l0.42-1.41l-0.89-2.18l0.89-3.32
					l-0.529-4.3l0.729-4.66l-0.62-3.17l0.73-6.92l-0.11-5.36l0.53-4.94l-0.53-1.55l0.11-6.98l1.2-0.43
					c-0.94-1.22-1.41-2.32-1.41-3.31c0-0.57,0.21-1.08,0.63-1.56l1.93,0.57l0.53-0.99c0.66,0.71,0.99,1.46,0.99,2.26
					c0,0.56-0.19,1.25-0.57,2.05h1.51l0.21,3.31l1.311,1.48l0.21,2.12l1.729,1.48l0.57,2.96c0.22,1.13,0.58,1.98,1.1,2.54
					l3.561,3.46v0.28c0,0.75,0.37,1.62,1.1,2.61l2.46,2.26l2.67,4.23l8.37,9.38h0.94c0.77,0.85,1.26,1.63,1.47,2.33
					c0.21,0.71,0.4,1.08,0.58,1.13l3.4,1.48l2.72,3.04l1.57,0.7l3.029,2.33l2.88,1.13c0.08,0.11,0.16,0.22,0.24,0.32l-1.41,0.17
					l1.15,2.26l4.399,1.06l0.73,1.27l-0.15,1.49l-1.77-0.37l-1.15-1.9l-0.52,0.92l-0.99-1.62l-1.729,0.7l-2.101-2.26l-1.09,0.28
					l-2.15-0.56l-1.25-1.77l-0.79,0.29l-6.54-5.65l-0.729-1.27l-2.26-1.34l-1.41-2.39l-1.26-0.92l-1.721-2.33l-4.819-2.82
					l-3.45-5.93l-1.47-0.14l-0.78-1.62c-0.98-0.56-2.11-1.86-3.4-3.88h0.521c-0.66-0.8-1.24-1.91-1.721-3.32l-0.739-0.35h-0.21
					c-0.761,0-1.261,0.33-1.49,0.99c-0.23,0.66-0.48,2.07-0.76,4.23l-0.99,7.41l0.99,4.44l-1.521,7.41
					c0.42,2.96,0.63,4.58,0.63,4.87v0.56c0,1.18-0.229,2.12-0.68,2.82c-0.45,0.71-0.68,1.23-0.68,1.56c0,0.23,0.46,0.56,1.359,0.99
					l-0.63,3.03v3.6l-0.52,3.95l0.52,1.55l-0.52,1.06c-0.141,2.87-0.61,5.131-1.41,6.771h-0.73c-0.88,0-1.31-0.92-1.31-2.75v-0.57
					l1.31-5.64l-0.47-2.08c0.1-0.11,0.2-0.22,0.3-0.32c0.65-0.68,0.971-1.23,0.971-1.66c0-0.28-0.141-0.94-0.421-1.97l-0.199,0.64
					l-0.71-1.1l0.84-2.33L351.24,387.16z"/>
				<path fill="#FDFEFF" d="M352.52,392.13c0.28,1.03,0.421,1.69,0.421,1.97c0,0.43-0.32,0.98-0.971,1.66
					c-0.1,0.1-0.2,0.21-0.3,0.32l-0.06-0.25l0.729-3.03l-0.02-0.03L352.52,392.13z"/>
				<path d="M290.56,368.85l-1.05-2.05c0.39-0.56,0.63-1.53,0.74-2.89l1.31-0.57v-0.84l1.36-0.42c0.45-0.47,0.88-0.71,1.3-0.71
					c0.28,0,0.58,0.12,0.89,0.35c0.32,0.24,0.51,0.36,0.58,0.36c0.1,0,0.23-0.15,0.37-0.43c0.31,1.74,1.81,2.61,4.5,2.61
					c2.33,0,4.15-0.3,5.44-0.91v-0.43l8.06-0.42c1.851-1.27,3.801-1.9,5.86-1.9l0.68,0.28l1.78-0.85l0.47-0.84l1.261,0.14l1.62-0.85
					h1.149l1.311,1.84l-0.421,1.2h-3.039l-0.83,0.99c-0.141,0.18-0.471,0.4-1,0.63l-1.57,0.64c-1.811,0-3.41,1.01-4.811,3.03
					l-1.729-1.56l-1.521,0.99c-0.31-0.28-0.59-0.42-0.829-0.42c-0.421,0-0.96,0.42-1.631,1.27l-1.46-0.84l-1.409,0.84l-0.53-0.84
					l-1.93,1.48l-2.57-0.43c-0.52,0-1.06,0.1-1.62,0.28l1.05,1.98l2.62,3.03l0.73,1.77l4.18,4.3l0.939,2.33l0.681,1.06
					c0.21,0.28,0.67,1.57,1.359,3.88l2.881,0.14l3.25,4.44l1.729,1.06l2.35,1.98l2.25,0.91l3.19,1.7l1.21-0.29l0.521,0.57l0.21-0.28
					l0.42,0.979l1.52-0.42l0.311,1.48l1.199-1.061l1.261,0.5l3.659-0.5l1.471,0.5l5.18-1.2l3.82-1.41l0.26,0.84l0.74-1.76h1.62
					l0.42-1.34l0.02,0.03l-0.729,3.03l0.06,0.25c-0.57,0.61-1.21,1.31-1.92,2.12l-1.2-0.57l-1.42,2.89
					c-1.149,0.101-2.25,0.521-3.29,1.271l-3.09-0.99l-1.73,0.99l-0.52,1.27c-1.02-1.029-1.66-1.55-1.94-1.55
					c-0.14,0-0.21,0.141-0.21,0.42l-0.58-0.14l-0.939,1.27l-0.94-1.55l-0.779,0.42c-0.601-0.66-1.17-0.979-1.73-0.979h-3.399
					l-1-1.49l-1.15,0.29l-1.72-1.27l-1.051,0.699l-0.79-1.689H320.7l-0.99-1.62h-1.26c-0.101,0-0.32-0.36-0.65-1.06
					c-0.33-0.71-0.83-1.32-1.49-1.84l-3.25-2.32c-1.88-1.23-3.35-3.34-4.39-6.35h-1.26l-1.72-2.9l-3.15-3.31l-3.5-5.5l-1-0.43
					l-1.62-2.33c-0.17-0.28-0.9-0.7-2.2-1.26c-0.49,0.37-0.92,0.56-1.3,0.56c-0.32,0-0.67-0.19-1.05-0.56v0.14
					c0,0.09-0.07,0.14-0.21,0.14H290.56z"/>
				<path d="M283.28,388.81c-0.87-1.46-1.3-2.42-1.3-2.89c0-0.89,0.4-1.86,1.2-2.89l-0.89-2.33h-0.1c-0.14,0-0.21-0.05-0.21-0.14
					c0-0.52,0.43-1.86,1.3-4.02c-0.48-0.71-0.73-1.62-0.73-2.75l0.32-2.33v-1.13c0.49-1.22,0.73-2.23,0.73-3.03
					c0-0.9-0.24-2.03-0.73-3.39l0.73-2.4l-0.32-2.18l0.63-0.71c-0.21-0.42-0.31-0.92-0.31-1.48c0-0.71,0.24-1.86,0.73-3.46
					l-1.05,0.28l-0.62-3.88l0.52-2.75l-0.52-5.92l0.52-0.71c-1.12-1.55-1.97-2.33-2.56-2.33h-0.32l-0.78,0.99l-2.46-0.28l-1.62,2.75
					c-0.74-0.8-1.42-1.27-2.05-1.41c-0.55-0.99-0.83-1.76-0.83-2.33c0-0.47,0.08-0.93,0.23-1.37c0.16-0.45,0.43-0.86,0.81-1.24
					l1.42-1.27l3.24-0.49l4.4-0.28l0.94-0.99v-0.43c0-1.45,0.82-2.18,2.46-2.18h1.31c0.38,2.02,1.03,3.03,1.93,3.03
					c0.21,0,0.96-0.42,2.26-1.27l2.66,0.85l4.19-0.85l5.55,0.85l7.85,0.28l3.921,0.99h3.039l1.15,1.34
					c0.11-0.57,0.33-0.85,0.68-0.85c0.28,0,0.631,0.29,1.051,0.85c0,0.66,0.13,1.22,0.409,1.69l1.101,0.29v-1.84l4.3,2.33l1.46,1.55
					l0.21-0.42c0.63,0.52,1.57,0.84,2.83,0.99l0.73,1.2l0.939,0.28c1.15,2.4,2.03,4.19,2.64,5.36c0.61,1.18,0.921,2.23,0.921,3.18
					c0,1.73-0.551,3.26-1.65,4.58s-2.29,2.96-3.59,4.94l-1.09,0.07l-0.841,0.07c-0.21,0-0.819,0.33-1.829,0.99l-1.311-1.84
					c0.59,0,0.96-0.08,1.101-0.25c0.14-0.16,0.21-0.53,0.21-1.09v-0.56c0.869-0.15,1.31-0.33,1.31-0.57
					c2.68-0.94,4.03-2.54,4.03-4.8c0-1.08-0.391-2.13-1.15-3.17l-3.56-4.58h-0.84c-1.641-1.37-2.69-2.05-3.141-2.05h-1.05
					l-2.14-1.27h-1.311l-1.359-1.48h-2.461l-1-0.57l-5.859-0.56l-0.99-0.78l-0.63,0.5l-1.2-0.5l-1.15,0.5l-3.15-0.5l-3.19,0.78
					l-1.72-0.78l-1.94,0.28l-1.68-0.28l-1.3,0.78l-0.95-0.5l-1.93,1.63l-1.52-0.29c-0.49,1.42-1.03,2.61-1.62,3.6l0.68,2.05
					l-0.32,8.39l0.74,7.2c-0.77,3.34-1.17,5.41-1.21,6.21l-0.03,0.86l-0.7,17.62l0.84,10.58l-0.63,5.64v1.41
					c0,0.761-0.68,1.13-2.04,1.13h-0.42l0.52-5.569l-0.52-2.19l-0.94-5.92L283.28,388.81z"/>
				<path d="M259.84,381.83l0.52-1.41l1.73-1.77l2.88-4.3l1.73-0.85l0.84-2.47l1.41-1.34l-0.32-2.61l0.74-2.26l-0.42-4.23l0.62-1.41
					l-0.94-3.31l0.11-1.06c0-0.35-0.05-0.73-0.15-1.14l2.29-0.05c0.07,0.24,0.14,0.5,0.21,0.77l1.42,5.15
					c0.35,1.22,0.52,2.02,0.52,2.4v0.98l-1,3.18l-0.31,4.37l-0.94,1.27l-1.1,4.66c-0.11,0.61-0.21,1.06-0.32,1.34
					c-0.1,0.28-0.32,0.51-0.68,0.7l-1.15,0.64l-6.33,6.84l-1.46,0.99c-0.46,0.28-1.17,1.05-2.15,2.33v-0.85l-0.23,0.24l-1.81-1.73
					l0.73-2.75l0.32,0.14l0.21-0.99c0.83-0.32,1.51-0.96,2.04-1.9L259.84,381.83z"/>
				<path d="M215.25,396.71l1.09-1.94c0.84,0.73,1.77,1.31,2.78,1.73c2.03,0.84,3.2,1.22,3.51,1.12l3.45-1.19l0.74,1.06h1.73v0.979
					h1.67l0.47-1.76l1.68-0.28l4.29,0.7c0.38-0.94,0.82-1.41,1.3-1.41l0.42,0.14c1.57-1.36,2.73-2.04,3.46-2.04h0.42l2.14-1.84
					c0.28-0.19,1.03-0.33,2.25-0.42l1.36-1.62c2.59-0.1,4.07-0.33,4.45-0.71c0.39-0.37,0.73-0.77,1.02-1.2
					c0.3-0.42,0.99-0.8,2.07-1.13l1.81,1.73l-4.17,4.34l-1.93,1.13l-4.61,3.39c-0.66-0.42-1.31-0.641-1.93-0.641
					c-0.49,0-0.87,0.24-1.13,0.71c-0.26,0.471-0.53,0.771-0.81,0.921l-0.94-0.29l-1.73,2.189l-0.89-0.63l-0.42,0.77h-1.83
					l-0.94,1.271l-3.19-0.28l-5.18,1.271c-0.21-0.101-0.53-0.141-0.95-0.141l-1.62,0.28l-1.83-0.42l-0.42-0.57l-4.5-0.979
					l-2.14-1.48h-0.95V396.71z"/>
				<path fill="#FDFEFF" d="M215.9,353.75c0.17-0.42,0.6-0.63,1.28-0.63c0.57,0,1,0.19,1.3,0.56l-1.86,1.62
					c-0.53-0.14-0.8-0.49-0.8-1.05C215.82,354.06,215.85,353.89,215.9,353.75z"/>
				<path d="M217.18,353.12c-0.68,0-1.11,0.21-1.28,0.63l-0.31-0.06h-0.01h-1.11l1.3-4.03l4.19-8.96c0.63-0.28,1.08-0.78,1.36-1.51
					c0.28-0.73,1.03-1.68,2.25-2.86l-0.21-1.27h1.31l-0.31-0.85c0.8-1.13,1.9-2,3.29-2.61l0.79-1.2h-0.1c0-0.04,0.68-0.18,2.04-0.42
					l4.91-0.85l3.09,0.57l2.36-0.14h2.77c0.74,0.19,1.24,0.28,1.52,0.28c0.98,0,1.73-0.42,2.25-1.27c0.35,0.47,0.75,0.7,1.2,0.7
					c0.21,0,0.39-0.04,0.53-0.14c0.03,0.94,0.38,1.41,1.04,1.41c0.28,0.43,1.07,0.73,2.36,0.92l0.79,0.99l1.56,0.28h2.05l2.93,2.05
					h-0.68l1.98,1.9c0.25,0.24,0.6,0.9,1.05,1.98l1.57,0.98l0.79,1.77l1.83,0.98l3.56,7.98c0.21,0.45,0.56,1.53,1.04,3.25
					l-2.29,0.05c-0.04-0.13-0.07-0.27-0.12-0.41c-0.17-0.57-0.9-1.39-2.19-2.47l-0.79-2.75l-0.63-0.43l-0.31-1.62l-3.04-4.3
					l-2.67-3.03l-0.83,0.42l-3.88-3.32c-0.34-0.28-1.09-0.54-2.22-0.77c-1.13-0.24-2-0.61-2.59-1.13c0,0.09-0.11,0.14-0.32,0.14
					c-0.13,0-0.67-0.09-1.62-0.28l-0.52,0.49l-1.62-0.78l-1.05,0.78c-0.94-0.42-1.59-0.63-1.94-0.63c-0.21,0-0.51,0.1-0.91,0.31
					c-0.4,0.21-0.71,0.32-0.92,0.32c-0.35,0-0.59-0.12-0.73-0.35c-0.73,0.51-1.32,1.12-1.75,1.8c-0.44,0.68-1.15,1.3-2.12,1.87
					l-1.52-0.5l-1.47,1.34l-1.72-0.28l-0.63,0.35c-0.21,0.14-0.4,0.32-0.58,0.53c-0.17,0.21-0.39,0.46-0.65,0.74
					c-0.26,0.29-0.57,0.6-0.94,0.96c-0.37,0.35-0.77,0.74-1.21,1.16c-0.43,0.42-0.91,0.84-1.43,1.27c-0.25,0.23-0.72,1.2-1.42,2.89
					l0.11,2.05l-1.94,1.13c-0.21,0.13-0.64,0.72-1.31,1.76c-0.45,1.4-1.01,2.56-1.65,3.49l-0.98-0.74
					C218.18,353.31,217.75,353.12,217.18,353.12z"/>
				<path d="M208.81,385.5l-0.21-5.79l1.47-6.2l-0.21-3.04l1-1.2l-0.79-2.47l1.83-1.97v-2.05l0.63-1.9v-1.55l0.79-1.77L213,357
					l0.53-0.42l0.3-0.92l1.75-1.97h0.01l0.31,0.06c-0.05,0.14-0.08,0.31-0.08,0.5c0,0.56,0.27,0.91,0.8,1.05l1.86-1.62l0.98,0.74
					c-0.09,0.14-0.18,0.27-0.28,0.39v1.76c-0.84,0.47-1.33,1.06-1.47,1.76l-0.99,4.17l-1.78,1.55c-0.25,5.88-0.62,9.29-1.13,10.23
					c-0.5,0.94-0.85,1.8-1.04,2.57c-0.2,0.78-0.34,1.63-0.42,2.54c-0.09,0.92-0.34,2.22-0.76,3.92l0.63,1.69l0.31,2.61l0.99,1.76
					c0.14,0.29,0.25,0.64,0.32,1.06l0.21,1.7c0.68,1.03,1.44,1.91,2.29,2.64l-1.09,1.94l-1.51,0.78l-0.74-1.41
					c-0.31-0.52-0.66-0.92-1.04-1.2l-1.68-1.06c-0.56-2.12-0.87-4.56-0.94-7.33L208.81,385.5z"/>
				<polygon fill="#FDFEFF" points="215.58,353.69 213.83,355.66 214.47,353.69 				"/>
				<path d="M147.14,403.07c-1.32-0.23-2.02-1.13-2.09-2.681l-0.23-6.84c-1.55-2.26-2.32-3.65-2.32-4.16c0-1.09,0.58-1.86,1.75-2.33
					l-0.79-0.99l0.11-2.33l-0.45-1.76l-0.62-11.5v-3.67l-0.46-1.97l-1.98-1.48l-0.22-4.17l2.66-2.19c0.79-2.86,1.19-5.26,1.19-7.19
					c0-0.52-0.08-1.24-0.23-2.19l1.02,0.57l-0.56-1.41l-0.35-5.36l0.68-3.32l-0.55-4.57l0.93-0.16l0.62-1.56h-1.68v-2.53l0.57-3.73
					l2.1-1.63c0.83,0.94,1.71,1.58,2.66,1.91l0.11,2.33l0.91,1.41c-0.53,2.35-0.8,3.69-0.8,4.02c0,0.75,0.19,1.24,0.57,1.48
					c0.07,0.28,0.11,0.75,0.11,1.41c0,1.55-0.41,5.27-1.24,11.14l0.79,2.34l-0.79,1.41c-0.04,1.41-0.23,3.29-0.57,5.64h2.44
					l1.24,0.56l3-0.56l1.87,0.28l2.55-0.28l2.21,1.34V358c0-0.66,0.22-0.99,0.68-0.99c0.3,0,0.65,0.19,1.07,0.56h1.98l4.48-0.28
					c0.83,0,1.41,0.1,1.75,0.28l0.85-1.27l0.8,0.71c1.73,0.24,2.81,0.42,3.22,0.56c0.46-0.28,0.82-0.42,1.08-0.42l0.45,0.14
					l12.63-1.69l5.09,0.42l-1.02-2.04l0.57-0.85l-0.57-3.17l0.57-2.33l-0.79-6.21l0.79-2.33l-2.32-8.53
					c-0.15-0.57-0.23-0.99-0.23-1.27c0-0.71,0.25-1.3,0.74-1.77c0.49-0.47,0.83-0.7,1.02-0.7h0.79l-0.45-2.61h1.75l0.57,1.62
					l2.1-0.57v2.26l1.35-0.56v2.61l-0.79,1.9l1.02,3.74v1.84l0.62,2.04l-0.85,2.89l0.23,2.33l-0.68,11.57l2.78-0.56l2.54-0.22
					l4.31-1.41l1.98,0.29l1.47-0.29h1.59l-0.64,1.97l-0.56,0.63l-1.87-0.28l-1.64,1.55l-1.24-0.99l-4.53,1.63l-0.85,1.97l-1.81-1.83
					l-2.67,4.44h0.91c-0.11,1.6-0.62,3.04-1.53,4.3h0.23c0.34,0,0.51,0.36,0.51,1.06c0,2.5-0.25,4.57-0.74,6.21l0.62,0.71
					c0,0.8-0.12,1.38-0.36,1.76c-0.25,0.38-0.37,0.75-0.37,1.13c0,0.56,0.15,1.48,0.45,2.75l-0.68,0.71l0.11,6.98l-1.02,7.76h0.23
					l-0.45,2.331l0.45,0.989l-0.23,2.32l0.4,1.21c0.27,0.94,0.4,1.88,0.4,2.82c0,0.47-0.27,0.96-0.8,1.479l0.12,0.7
					c0,0.99-0.36,1.86-1.08,2.62l-0.11-1.49c-1.06-2.02-1.59-3.41-1.59-4.16v-5.5l-0.51-1.84l0.85-0.91l-0.85-0.57l-0.33-2.32v-2.12
					l0.33-0.14l-0.33-1.62l0.33-5.65l-0.11-5.22l0.85-3.74l-0.74-1.27l0.51-1.34v-8.95l0.34-4.59l-2.2,0.99l-0.57-0.85l-0.96,0.85
					l-1.13-0.57c-1.29,0.8-2.32,1.12-3.12,0.96c-0.79-0.17-1.34-0.25-1.64-0.25c-0.56,0-1.08,0.09-1.53,0.28l-4.53,1.91l-5.32-0.85
					l-0.57,0.28c-1.02-0.47-1.79-0.7-2.32-0.7c-0.41,0-1.07,0.21-1.95,0.63c-0.89,0.42-1.48,0.64-1.79,0.64l-1.81-0.57l-0.73,1.98
					l-1.98-1.84l-2.89,0.85l-1.13-0.85l-0.97,1.13l-1.36-0.21c-0.45-0.05-1.15-0.4-2.09-1.06l-0.11,0.99l-0.91-0.42
					c-1.47,0-2.75,0.21-3.85,0.63c-1.09,0.42-1.64,1.86-1.64,4.3v5.3l-0.45,3.81l0.45,2.53l-1.02,2.75l1.02,2.47l-0.79,6.35
					l0.56,2.33l-0.22,3.74l0.79,2.471l-0.34,1.199l0.22,2.4L147.14,403.07z"/>
				<polygon fill="#FDFEFF" points="143.57,331.81 145.25,331.81 144.63,333.37 143.7,333.53 143.57,332.46 				"/>
				<path d="M93.27,330.76h1l1.05-3.32l1.73,0.64l0.37,1.41l0.81-0.43c0.66,0.99,1.63,1.81,2.91,2.47l2.04-0.77
					c1.37,0,2.54,0.63,3.54,1.9l0.74-1.13l4.71-1.06l2.91,0.29c0.82,0.42,1.59,0.63,2.29,0.63h0.62c0.78-0.33,1.42-0.49,1.92-0.49
					l1.79,0.35c0.38,0,0.62-0.17,0.75-0.49l2.54-0.43l2.91,0.78c0.41,0.47,1,0.55,1.76,0.24c0.77-0.3,1.27-0.45,1.52-0.45l2.29,0.49
					l6.32-0.14l2.79,0.56h0.99v0.65l0.13,1.07l-0.68,0.12h-3.84l-1.8,0.49l-1.49-0.49l-7.86,0.77l-2.67-0.77
					c-2.18,0.98-3.76,1.48-4.71,1.48h-3.77l-2.29-0.99c0,0.47-0.32,0.8-0.93,0.99c-1.16,0-2.28,0.19-3.38,0.56
					c-1.09,0.38-2.12,0.57-3.07,0.57l-2.54-1.13l-2.16,1.13l-0.25,0.91h-1.12l-0.68,1.41l-0.49,9.39l0.49,1.34l-0.25,1.55l0.13,4.16
					l-0.37,4.23v1.28c0,0.61-0.12,1.06-0.34,1.37c-0.23,0.3-0.41,1.07-0.53,2.3l0.99,1.83l-0.25,2.33l-0.86,0.7
					c0,0.57,0.24,1.29,0.74,2.19l-0.74,1.41v1.62l-1,1.69l0.62,4.1l-0.24,5.92l-0.93,3.74c0.16,0.38,0.25,0.66,0.25,0.85
					c0,0.28-0.08,0.6-0.22,0.95c-0.15,0.35-0.17,0.71-0.06,1.06c0.1,0.35,0.15,0.64,0.15,0.88c0,0.28-0.21,0.9-0.62,1.87
					c-0.41,0.96-0.56,1.561-0.43,1.8c0.04,0.091,0.18,0.841,0.43,2.25c-0.41,1.271-0.62,2.24-0.62,2.9c0,0.65,0.08,1.71,0.25,3.17
					c-0.5,0-0.94-0.07-1.33-0.21s-0.63-0.21-0.71-0.21c-0.67,0-1-1.39-1-4.16l0.25-2.189c0-0.801-0.08-1.95-0.25-3.46
					c-0.16-1.5-0.24-2.61-0.24-3.31l0.74-10.16c-0.66-1.27-0.99-1.98-0.99-2.12c0-0.51,0.2-0.96,0.62-1.34
					c-0.33-0.47-0.5-0.89-0.5-1.27c0-0.28,0.25-0.56,0.75-0.85c-0.33-0.94-0.5-1.57-0.5-1.9c0-0.52,0.15-1.21,0.43-2.08
					c0.29-0.87,0.44-1.38,0.44-1.52l-0.13-2.33c0-0.28,0.39-1.34,1.18-3.17c-0.7,0-1.05-0.64-1.05-1.9c0-2.22,0.25-3.46,0.74-3.74
					v-5.93l-0.74-2.89l0.74-6.07l-0.74-4.3l0.74-3.39c-0.33-1.31-0.91-1.97-1.73-1.97c-0.46,0-0.85,0.23-1.18,0.7l-1.8,0.21
					c-0.66,0.05-1.32,0.31-1.98,0.78l-1.55-0.14l-1.48,0.14v0.49h-1.06c-1.4,0-2.54-0.3-3.4-0.91l-0.25,0.91l-2.66-0.91l-7.38-0.28
					l-2.91,0.98c-2.19-2.16-3.28-3.59-3.28-4.3c0-0.19,0.17-0.96,0.5-2.33h2.04l8.98,2.05l2.17-0.85l5.94,0.28l5.58,0.57
					L93.27,330.76z"/>
				<polygon fill="#FDFEFF" points="56.35,381.22 69.13,401.53 55.95,386.45 				"/>
				<path fill="#808285" d="M69.1,401.26c0.01,0.05,0.02,0.101,0.02,0.141C69.11,401.36,69.1,401.31,69.1,401.26z"/>
				<path fill="#808285" d="M68.1,396.61c0.3,0.989,0.48,1.89,0.62,2.63c0.17,0.92,0.29,1.6,0.37,1.979c0,0.011,0,0.03,0.01,0.04
					c0,0.05,0.01,0.101,0.02,0.141c-0.05-0.24-0.1-0.48-0.15-0.721c-0.3-1.5-0.63-2.989-0.98-4.45
					C68.03,396.36,68.06,396.49,68.1,396.61z"/>
				<path fill="#808285" d="M67.82,396.39c0.45,1.4,0.83,2.84,1.15,4.29c0.05,0.24,0.1,0.48,0.15,0.721
					c0,0.029,0.01,0.05,0.01,0.069c-0.01-0.029-0.02-0.06-0.03-0.1c-0.09-0.37-0.32-1.28-0.66-2.62
					C68.27,398.07,68.06,397.28,67.82,396.39z"/>
				<path fill="#808285" d="M68.97,400.68c-0.32-1.449-0.7-2.89-1.15-4.29c-0.01-0.04-0.02-0.08-0.04-0.11
					c-0.36-1.34-0.8-2.89-1.31-4.6c0.21,0.55,0.4,1.09,0.6,1.6c0.42,0.98,0.66,2,0.91,2.9c0,0.02,0.01,0.03,0.01,0.05
					C68.34,397.69,68.67,399.18,68.97,400.68z"/>
				<path fill="#808285" d="M65.71,258.12l0.05,0.05c0,0-0.02,0.03-0.06,0.09L65.71,258.12z"/>
				<path fill="#808285" d="M65.71,258.12l-0.01,0.14c-0.01,0.01-0.02,0.03-0.04,0.05L65.71,258.12z"/>
				<path fill="#FDFEFF" d="M65.7,258.26l-8.26,108.6c-1.42-2.44-2.96-4.72-4.57-6.7c-2.24-2.78-4.65-4.9-6.87-6.28
					c-1.12-0.66-2.18-1.16-3.15-1.43c-0.19-0.06-0.37-0.11-0.55-0.15l23.36-93.99C65.68,258.29,65.69,258.27,65.7,258.26z"/>
				<path fill="#808285" d="M65.55,258.34c0.03-0.04,0.05-0.07,0.07-0.1c-0.03,0.07-0.1,0.16-0.18,0.28
					C65.47,258.46,65.51,258.4,65.55,258.34z"/>
				<path fill="#FDFEFF" d="M65.66,258.31L42.3,352.3c-0.75-0.19-1.42-0.26-1.99-0.3c-0.69,0-1.24,0.04-1.61,0.12
					c0.07-3.85,0.24-7.73,0.49-11.59c0.44-5.68,1.07-11.32,1.92-16.83c0.9-5.48,1.92-10.85,3.18-15.93
					c1.26-5.07,2.63-9.92,4.15-14.38c1.47-4.49,3.12-8.58,4.68-12.31c0.83-1.83,1.62-3.59,2.38-5.25c0.81-1.62,1.58-3.16,2.31-4.6
					c0.77-1.4,1.49-2.71,2.16-3.92c0.67-1.21,1.35-2.25,1.93-3.22c1.15-1.97,2.18-3.38,2.83-4.39
					C65.2,259,65.52,258.52,65.66,258.31z"/>
				<path fill="#808285" d="M64.06,260.4c0.21-0.31,0.4-0.58,0.57-0.83c0.67-0.98,1.04-1.51,1.04-1.51l0.04,0.06
					c-0.03,0.04-0.06,0.08-0.09,0.12c-0.02,0.03-0.04,0.06-0.07,0.1c-0.07,0.1-0.16,0.22-0.27,0.38
					C65,259.11,64.59,259.67,64.06,260.4z"/>
				<path fill="#808285" d="M65.28,258.72c-0.77,1.09-1.53,2.16-2.28,3.22c0.24-0.36,0.47-0.69,0.68-1
					c0.14-0.19,0.26-0.37,0.38-0.54C64.59,259.67,65,259.11,65.28,258.72z"/>
				<path fill="#808285" d="M65.44,258.52c-0.48,0.73-1.62,2.43-3.28,4.91C63.21,261.75,64.3,260.11,65.44,258.52z"/>
				<path d="M61.19,381.64c-0.89-1.25-1.8-2.52-2.79-3.69l-1.49-1.71c-0.05-0.06-0.11-0.12-0.17-0.17l0.53-6.9
					c0.29,0.52,0.57,1.06,0.85,1.6c1.84,3.47,3.44,7.18,4.83,10.72c0.68,1.79,1.33,3.52,1.91,5.19c0.57,1.68,1.08,3.28,1.54,4.77
					c0.02,0.08,0.05,0.16,0.07,0.23c-0.26-0.71-0.55-1.44-0.9-2.16c-0.29-0.64-0.59-1.31-0.9-1.99c-0.33-0.66-0.71-1.29-1.07-1.96
					C62.9,384.21,62.04,382.95,61.19,381.64z"/>
				<path fill="#808285" d="M65.44,258.52c-1.14,1.59-2.23,3.23-3.28,4.91c-0.02,0.02-0.03,0.03-0.03,0.05
					c-0.15,0.21-0.29,0.43-0.44,0.65c-0.39,0.59-0.82,1.22-1.26,1.89c0.46-0.76,0.91-1.45,1.32-2.11c0.42-0.7,0.83-1.33,1.2-1.9
					c0.02-0.02,0.03-0.04,0.05-0.07c0.75-1.06,1.51-2.13,2.28-3.22c0.11-0.16,0.2-0.28,0.27-0.38
					C65.51,258.4,65.47,258.46,65.44,258.52z"/>
				<path fill="#808285" d="M62.77,386.44c-0.71-1.29-1.59-2.46-2.42-3.73c-0.88-1.2-1.78-2.43-2.75-3.54l-1-1.18l0.07-0.99
					c4.59,5.04,8.71,11.75,11.11,19.28c0.02,0.03,0.03,0.07,0.04,0.11c0.24,0.89,0.45,1.68,0.62,2.36c0.34,1.34,0.57,2.25,0.66,2.62
					c-0.1-0.32-0.31-1.021-0.6-2.04c-0.19-0.72-0.44-1.58-0.82-2.51c-0.37-0.93-0.69-2.021-1.2-3.12c-0.5-1.11-0.98-2.35-1.64-3.54
					c-0.32-0.6-0.64-1.23-0.97-1.86C63.51,387.7,63.14,387.08,62.77,386.44z"/>
				<path fill="#808285" d="M67.98,396.18c-2.62-10.95-6.37-20.68-10.62-28.19l0.08-1.13c0.58,0.97,1.13,1.96,1.66,2.97
					c0.92,1.79,1.8,3.63,2.6,5.48c0.82,1.83,1.52,3.72,2.2,5.54c1.33,3.66,2.33,7.22,3.13,10.28c0.8,3.07,1.28,5.71,1.64,7.53
					c0.21,1.229,0.36,2.109,0.42,2.56c-0.08-0.38-0.2-1.06-0.37-1.979c-0.14-0.74-0.32-1.641-0.62-2.63
					c-0.04-0.12-0.07-0.25-0.11-0.38C67.99,396.21,67.98,396.2,67.98,396.18z"/>
				<path fill="#808285" d="M58.12,370.77c-0.28-0.54-0.56-1.08-0.85-1.6l0.09-1.18c4.25,7.51,8,17.24,10.62,28.19
					c-0.25-0.9-0.49-1.92-0.91-2.9c-0.2-0.51-0.39-1.05-0.6-1.6c-0.02-0.07-0.05-0.15-0.07-0.23c-0.46-1.49-0.97-3.09-1.54-4.77
					c-0.58-1.67-1.23-3.4-1.91-5.19C61.56,377.95,59.96,374.24,58.12,370.77z"/>
				<path fill="#FDFEFF" d="M56.35,381.22l0.25-3.23l1,1.18c0.97,1.11,1.87,2.34,2.75,3.54c0.83,1.27,1.71,2.44,2.42,3.73
					c0.37,0.64,0.74,1.26,1.1,1.86c0.33,0.63,0.65,1.26,0.97,1.86c0.66,1.19,1.14,2.43,1.64,3.54c0.51,1.1,0.83,2.19,1.2,3.12
					c0.38,0.93,0.63,1.79,0.82,2.51c0.29,1.02,0.5,1.72,0.6,2.04c0.01,0.04,0.02,0.07,0.03,0.1c0.01,0.061,0.02,0.09,0.02,0.09
					l-0.02-0.029L56.35,381.22z"/>
				<path d="M57.27,369.17l-0.53,6.9c-0.45-0.49-0.93-0.94-1.39-1.4c-0.51-0.54-1.04-1.03-1.59-1.46c-0.53-0.45-1.06-0.89-1.59-1.33
					c-1-0.71-1.95-1.43-2.92-1.95l-8.12-12.91l1.04-4.2c0.18,0.06,0.37,0.14,0.56,0.22c0.93,0.37,1.92,0.97,2.98,1.66
					C49.61,357.39,53.81,362.84,57.27,369.17z"/>
				<path fill="#808285" d="M56.91,376.24l1.49,1.71c0.99,1.17,1.9,2.44,2.79,3.69c0.85,1.31,1.71,2.57,2.41,3.93
					c0.36,0.67,0.74,1.3,1.07,1.96c0.31,0.68,0.61,1.35,0.9,1.99c0.35,0.72,0.64,1.45,0.9,2.16c0.51,1.71,0.95,3.26,1.31,4.6
					c-2.4-7.53-6.52-14.24-11.11-19.28l0.07-0.93C56.8,376.12,56.86,376.18,56.91,376.24z"/>
				<path fill="#FDFEFF" d="M56.35,381.22l-5.45-8.67c0.24,0.19,0.48,0.38,0.73,0.56c0.99,0.91,2.05,1.76,3.03,2.82
					c0.5,0.52,1.01,1.01,1.5,1.55l0.44,0.51L56.35,381.22z"/>
				<path fill="#808285" d="M52.82,428.42l-0.06,0.05l0.01-0.16C52.8,428.38,52.82,428.42,52.82,428.42z"/>
				<path fill="#808285" d="M51.63,373.11c-0.25-0.18-0.49-0.37-0.73-0.56l-0.96-1.52c2.26,1.55,4.55,3.57,6.73,5.97l-0.07,0.99
					l-0.44-0.51c-0.49-0.54-1-1.03-1.5-1.55C53.68,374.87,52.62,374.02,51.63,373.11z"/>
				<path fill="#808285" d="M56.67,377c-2.18-2.4-4.47-4.42-6.73-5.97l-0.69-1.1c0.97,0.52,1.92,1.24,2.92,1.95
					c0.53,0.44,1.06,0.88,1.59,1.33c0.55,0.43,1.08,0.92,1.59,1.46c0.46,0.46,0.94,0.91,1.39,1.4L56.67,377z"/>
				<path fill="#808285" d="M48.62,370.87c-0.97-0.7-1.93-1.2-2.82-1.65c-0.9-0.47-1.75-0.7-2.5-1.04
					c-0.77-0.17-1.43-0.32-1.99-0.44c-0.92-0.05-1.52-0.08-1.71-0.09c0.04-0.01,0.11-0.02,0.21-0.03c2.92-0.36,6.48,0.91,10.13,3.41
					l0.96,1.52C50.13,371.94,49.38,371.33,48.62,370.87z"/>
				<path fill="#808285" d="M57.36,367.99c-4.71-8.3-10.03-13.9-15.12-15.43l0.06-0.26c0.18,0.04,0.36,0.09,0.55,0.15
					c0.97,0.27,2.03,0.77,3.15,1.43c2.22,1.38,4.63,3.5,6.87,6.28c1.61,1.98,3.15,4.26,4.57,6.7L57.36,367.99z"/>
				<path fill="#808285" d="M42.24,352.56c5.09,1.53,10.41,7.13,15.12,15.43l-0.09,1.18c-3.46-6.33-7.66-11.78-11.56-14.47
					c-1.06-0.69-2.05-1.29-2.98-1.66c-0.19-0.08-0.38-0.16-0.56-0.22L42.24,352.56z"/>
				<path fill="#FDFEFF" d="M55.95,386.45l-16.41-18.79c0.02,0,0.04-0.01,0.06-0.01c0.19,0.01,0.79,0.04,1.71,0.09
					c0.56,0.12,1.22,0.27,1.99,0.44c0.75,0.34,1.6,0.57,2.5,1.04c0.89,0.45,1.85,0.95,2.82,1.65c0.76,0.46,1.51,1.07,2.28,1.68
					l5.45,8.67L55.95,386.45z"/>
				<path d="M38.69,353.14l2.44,3.88l-2.18,8.78c-0.13-2.72-0.21-5.49-0.27-8.27C38.67,356.07,38.67,354.61,38.69,353.14z"/>
				<path fill="#808285" d="M42.24,352.56c-1.2-0.37-2.38-0.51-3.54-0.41c0-0.01,0-0.02,0-0.03c0.37-0.08,0.92-0.12,1.61-0.12
					c0.57,0.04,1.24,0.11,1.99,0.3L42.24,352.56z"/>
				<path fill="#808285" d="M49.94,371.03c-3.65-2.5-7.21-3.77-10.13-3.41c0.29-0.04,0.8-0.11,1.51-0.2
					c0.57,0.02,1.26,0.1,2.06,0.16c0.78,0.23,1.69,0.35,2.62,0.77c0.94,0.38,1.96,0.81,2.99,1.44c0.09,0.04,0.17,0.09,0.26,0.14
					L49.94,371.03z"/>
				<path fill="#FDFEFF" d="M39.54,367.66l16.41,18.79l-3.18,41.85c-0.1-0.22-0.34-0.79-0.7-1.67c-0.48-1.18-1.25-2.85-2.05-5.11
					c-0.87-2.22-1.8-4.979-2.86-8.149c-0.48-1.62-0.99-3.33-1.53-5.14c-0.48-1.841-0.98-3.78-1.51-5.79
					c-0.95-4.08-1.94-8.521-2.69-13.311c-0.8-4.78-1.46-9.87-1.94-15.17c-0.19-2.06-0.34-4.16-0.45-6.28L39.54,367.66z"/>
				<path d="M39.04,367.68c-0.04-0.62-0.07-1.25-0.09-1.88l2.18-8.78l8.12,12.91c-0.09-0.05-0.17-0.1-0.26-0.14
					c-1.03-0.63-2.05-1.06-2.99-1.44c-0.93-0.42-1.84-0.54-2.62-0.77c-0.8-0.06-1.49-0.14-2.06-0.16c-0.71,0.09-1.22,0.16-1.51,0.2
					c-0.1,0.01-0.17,0.02-0.21,0.03c-0.02,0-0.04,0.01-0.06,0.01L39.04,367.68z"/>
				<path fill="#808285" d="M38.44,367.85l0.51-2.05c0.02,0.63,0.05,1.26,0.09,1.88c0.11,2.12,0.26,4.22,0.45,6.28
					c0.48,5.3,1.14,10.39,1.94,15.17c0.75,4.79,1.74,9.23,2.69,13.311c0.53,2.01,1.03,3.949,1.51,5.79
					c0.54,1.81,1.05,3.52,1.53,5.14c1.06,3.17,1.99,5.93,2.86,8.149c0.8,2.261,1.57,3.931,2.05,5.11c0.36,0.88,0.6,1.45,0.7,1.67
					c0,0.01,0,0.01,0,0.01l-0.01,0.16C44.38,410.57,39.67,389.51,38.44,367.85z"/>
				<path fill="#808285" d="M38.7,352.15c1.16-0.1,2.34,0.04,3.54,0.41l-0.07,0.26c-0.69-0.26-1.32-0.4-1.87-0.5
					c-0.68-0.07-1.22-0.15-1.6-0.11C38.7,352.19,38.7,352.17,38.7,352.15z"/>
				<path fill="#808285" d="M40.31,389.47c-0.91-4.8-1.5-9.97-2.01-15.32c-0.13-1.45-0.24-2.92-0.33-4.41l0.47-1.89
					c1.23,21.66,5.94,42.72,14.32,60.62l-0.05,0.04c0,0-0.28-0.609-0.81-1.74c-0.52-1.149-1.36-2.779-2.25-4.989
					c-0.44-1.101-0.99-2.28-1.5-3.641c-0.5-1.35-1.04-2.819-1.61-4.39c-0.53-1.61-1.09-3.31-1.68-5.11
					c-0.53-1.83-1.1-3.76-1.64-5.79C42.19,398.76,41.13,394.3,40.31,389.47z"/>
				<path d="M38.69,353.14c0-0.31,0.01-0.62,0.01-0.93c0.38-0.04,0.92,0.04,1.6,0.11c0.55,0.1,1.18,0.24,1.87,0.5l-1.04,4.2
					L38.69,353.14z"/>
				<path fill="#808285" d="M38.7,352.12c0,0.01,0,0.02,0,0.03c-0.18,0.01-0.36,0.03-0.54,0.06c0.08-0.02,0.26-0.05,0.52-0.09
					C38.69,352.12,38.69,352.12,38.7,352.12z"/>
				<path fill="#808285" d="M38.7,352.15c0,0.02,0,0.04,0,0.06c-0.01,0-0.01,0-0.02,0c-0.26,0.01-0.44,0.01-0.52,0.01v-0.01
					C38.34,352.18,38.52,352.16,38.7,352.15z"/>
				<path fill="#FDFEFF" d="M38.7,352.21c0,0.31-0.01,0.62-0.01,0.93l-0.54-0.85c0-0.02,0-0.05,0.01-0.07c0.08,0,0.26,0,0.52-0.01
					C38.69,352.21,38.69,352.21,38.7,352.21z"/>
				<path fill="#808285" d="M38.16,352.21c0.62-32.37,8.82-64.72,23.97-88.73c0-0.02,0.01-0.03,0.03-0.05
					c1.66-2.48,2.8-4.18,3.28-4.91c0.08-0.12,0.15-0.21,0.18-0.28c0.03-0.04,0.06-0.08,0.09-0.12l-0.05,0.19
					c-0.14,0.21-0.46,0.69-0.93,1.39c-0.65,1.01-1.68,2.42-2.83,4.39c-0.58,0.97-1.26,2.01-1.93,3.22
					c-0.67,1.21-1.39,2.52-2.16,3.92c-0.73,1.44-1.5,2.98-2.31,4.6c-0.76,1.66-1.55,3.42-2.38,5.25c-1.56,3.73-3.21,7.82-4.68,12.31
					c-1.52,4.46-2.89,9.31-4.15,14.38c-1.26,5.08-2.28,10.45-3.18,15.93c-0.85,5.51-1.48,11.15-1.92,16.83
					c-0.25,3.86-0.42,7.74-0.49,11.59c-0.01,0-0.01,0-0.02,0C38.42,352.16,38.24,352.19,38.16,352.21z"/>
				<path fill="#808285" d="M38.68,357.53c0.06,2.78,0.14,5.55,0.27,8.27l-0.51,2.05c-0.3-5.17-0.39-10.37-0.29-15.56l0.54,0.85
					C38.67,354.61,38.67,356.07,38.68,357.53z"/>
				<path fill="#808285" d="M38.16,352.21v0.01c-0.03,0-0.05,0-0.05,0S38.13,352.22,38.16,352.21z"/>
				<path fill="#FDFEFF" d="M38.16,352.22c-0.01,0.02-0.01,0.05-0.01,0.07l-0.04-0.07C38.11,352.22,38.13,352.22,38.16,352.22z"/>
				<path fill="#808285" d="M37.55,357.54c0.01-5.67,0.25-11.42,0.68-17.14c0.49-5.72,1.17-11.4,2.07-16.93
					c0.95-5.52,2.02-10.9,3.33-16c1.31-5.08,2.71-9.95,4.3-14.4c1.52-4.49,3.22-8.56,4.82-12.28c0.85-1.83,1.67-3.57,2.45-5.23
					c0.83-1.61,1.62-3.13,2.36-4.57c0.79-1.39,1.53-2.68,2.22-3.89c0.21-0.37,0.43-0.73,0.65-1.08c0.44-0.67,0.87-1.3,1.26-1.89
					c0.15-0.22,0.29-0.44,0.44-0.65c-15.15,24.01-23.35,56.36-23.97,88.73c-0.03,0.01-0.05,0.01-0.05,0.01l0.04,0.07
					c-0.1,5.19-0.01,10.39,0.29,15.56l-0.47,1.89C37.71,365.76,37.58,361.67,37.55,357.54z"/>
				<path fill="#FDFEFF" d="M33.51,311.38l0.04,0.15c0,0-0.01-0.01-0.03-0.02c-0.01-0.01-0.03-0.03-0.05-0.04
					C33.48,311.44,33.5,311.41,33.51,311.38z"/>
				<path fill="#808285" d="M33.52,311.51c-0.01,0-0.03-0.01-0.05-0.03c0-0.01,0-0.01,0-0.01C33.49,311.48,33.51,311.5,33.52,311.51
					z"/>
				<path fill="#FDFEFF" d="M19.63,262.63l13.88,48.75c-0.01,0.03-0.03,0.06-0.04,0.09c-0.19-0.15-0.69-0.55-1.44-1.15
					c-0.44-0.47-0.98-1.03-1.59-1.68c-0.53-0.78-1.2-1.54-1.82-2.53c-0.62-0.97-1.29-2.03-1.9-3.27c-0.5-0.89-0.93-1.9-1.39-2.93
					L19.63,262.63z"/>
				<path fill="#808285" d="M62.95,262.01c-17.25,24.58-27.74,43.66-33.83,62.67l-0.18-1.16c0.57-1.74,1.14-3.48,1.76-5.18
					c0.93-2.31,1.85-4.6,2.77-6.86c0.02,0.02,0.04,0.03,0.05,0.03c0.02,0.01,0.03,0.02,0.03,0.02l-0.04-0.15
					c0.09-0.22,0.17-0.43,0.26-0.65c1.04-2.48,2.24-4.8,3.33-7.15c0.56-1.16,1.11-2.31,1.66-3.46c0.6-1.09,1.19-2.18,1.78-3.25
					c1.17-2.14,2.33-4.23,3.45-6.27c2.4-3.91,4.63-7.64,6.76-11c2.2-3.29,4.21-6.3,6-8.97c1.8-2.64,3.45-4.85,4.77-6.72
					c0.84-1.15,1.56-2.15,2.16-2.97c-0.21,0.31-0.44,0.64-0.68,1C62.98,261.97,62.97,261.99,62.95,262.01z"/>
				<path fill="#808285" d="M29.28,325.98c-0.16-0.09-0.32-0.19-0.48-0.29c0-0.01,0-0.03,0.01-0.05
					C29.05,325.81,29.21,325.92,29.28,325.98z"/>
				<path fill="#808285" d="M28.8,325.69c0.16,0.1,0.32,0.2,0.48,0.29c-0.06-0.03-0.24-0.12-0.5-0.26
					C28.78,325.71,28.79,325.7,28.8,325.69z"/>
				<path fill="#FDFEFF" d="M28.81,325.64c0.09-0.32,0.19-0.64,0.31-0.96l0.2,1.32c0,0-0.01-0.01-0.04-0.02
					C29.21,325.92,29.05,325.81,28.81,325.64z"/>
				<path fill="#FDFEFF" d="M28.94,323.52l0.18,1.16c-0.12,0.32-0.22,0.64-0.31,0.96c-0.13-0.08-0.29-0.2-0.46-0.34
					C28.55,324.71,28.75,324.12,28.94,323.52z"/>
				<path fill="#808285" d="M28.81,325.64c-0.01,0.02-0.01,0.04-0.01,0.05c-0.16-0.09-0.32-0.2-0.47-0.32
					c0.01-0.02,0.02-0.04,0.02-0.07C28.52,325.44,28.68,325.56,28.81,325.64z"/>
				<path fill="#808285" d="M28.8,325.69c-0.01,0.01-0.02,0.02-0.02,0.03c-0.14-0.07-0.3-0.16-0.48-0.27
					c0.01-0.02,0.02-0.05,0.03-0.08C28.48,325.49,28.64,325.6,28.8,325.69z"/>
				<path fill="#808285" d="M25.63,301.84c2.25,4.45,4.86,7.82,7.49,9.44c-0.28-0.16-0.69-0.39-1.21-0.69
					c-0.49-0.39-1.07-0.91-1.75-1.48c-0.6-0.7-1.36-1.4-2.03-2.37c-0.69-0.94-1.43-1.98-2.11-3.19c-0.06-0.1-0.12-0.2-0.18-0.3
					L25.63,301.84z"/>
				<path fill="#808285" d="M33.12,311.28c-2.63-1.62-5.24-4.99-7.49-9.44l-0.3-1.93c0.46,1.03,0.89,2.04,1.39,2.93
					c0.61,1.24,1.28,2.3,1.9,3.27c0.62,0.99,1.29,1.75,1.82,2.53c0.61,0.65,1.15,1.21,1.59,1.68c0.75,0.6,1.25,1,1.44,1.15
					c0,0,0,0,0,0.01C33.4,311.44,33.28,311.38,33.12,311.28z"/>
				<path fill="#808285" d="M23.35,428.16c-2.62-46.01-3.37-74.26,5.43-102.44c0.26,0.14,0.44,0.23,0.5,0.26
					c0.03,0.01,0.04,0.02,0.04,0.02l-0.2-1.32c6.09-19.01,16.58-38.09,33.83-62.67c-0.37,0.57-0.78,1.2-1.2,1.9
					c-0.41,0.66-0.86,1.35-1.32,2.11c-1.01,1.48-2.15,3.15-3.35,5.02c-1.73,2.73-3.68,5.8-5.81,9.15c-2.08,3.4-4.25,7.18-6.58,11.13
					c-1.09,2.06-2.21,4.17-3.35,6.32c-0.57,1.08-1.15,2.17-1.73,3.27c-0.54,1.13-1.09,2.28-1.63,3.44
					c-1.07,2.34-2.25,4.65-3.27,7.12c-0.99,2.49-2,5.01-3.01,7.55c-0.93,2.59-1.74,5.28-2.62,7.94c-0.21,0.67-0.45,1.33-0.64,2.01
					l-0.52,2.08l-1.05,4.15c-0.79,2.73-1.21,5.61-1.77,8.42c-0.25,1.42-0.58,2.81-0.76,4.24c-0.18,1.43-0.36,2.85-0.54,4.27
					c-0.18,1.42-0.36,2.84-0.54,4.24c-0.14,1.42-0.23,2.84-0.34,4.24c-0.18,2.82-0.5,5.59-0.53,8.34c-0.09,2.75-0.18,5.46-0.27,8.1
					c-0.01,2.65-0.02,5.24-0.04,7.77c0,1.26,0,2.51-0.01,3.74c0.03,1.22,0.05,2.43,0.08,3.62c0.05,2.38,0.1,4.669,0.14,6.879
					c0.14,4.41,0.28,8.45,0.39,12.04c0.1,3.58,0.27,6.7,0.37,9.28c0.17,4.38,0.28,7.16,0.31,7.89
					C23.35,428.24,23.35,428.2,23.35,428.16z"/>
				<path fill="#808285" d="M21.99,414.53c-0.01,0-0.02-0.011-0.04-0.021v-0.01C21.97,414.52,21.98,414.53,21.99,414.53z"/>
				<path fill="#808285" d="M21.95,414.5v0.01c-0.02-0.01-0.04-0.02-0.07-0.04C21.9,414.49,21.93,414.5,21.95,414.5z"/>
				<path fill="#FDFEFF" d="M21.58,398.07l0.05,0.229c0,0-0.01-0.01-0.04-0.03C21.58,398.21,21.58,398.14,21.58,398.07z"/>
				<path fill="#808285" d="M21.37,392.21c-0.04-1.19-0.08-2.4-0.12-3.63c-0.02-1.23-0.03-2.48-0.04-3.75
					c-0.03-2.54-0.05-5.14-0.08-7.8c0.07-2.67,0.14-5.39,0.22-8.16c0.02-2.77,0.33-5.57,0.49-8.41c0.11-1.42,0.19-2.86,0.32-4.29
					c0.18-1.42,0.35-2.85,0.53-4.29s0.36-2.88,0.53-4.33c0.18-1.45,0.51-2.86,0.75-4.3c0.55-2.86,0.97-5.78,1.76-8.55l1.08-4.2
					l0.54-2.1c0.19-0.7,0.44-1.36,0.65-2.04c0.1-0.3,0.2-0.6,0.3-0.91c0.18,0.11,0.34,0.2,0.48,0.27
					c-8.8,28.18-8.05,56.43-5.43,102.44c-0.06-0.88-0.25-3.59-0.54-7.76c-0.11-1.721-0.25-3.69-0.39-5.881
					c-0.06-1.079-0.13-2.21-0.19-3.39c-0.18-3.58-0.46-7.61-0.62-12.03c-0.01-0.27-0.02-0.55-0.02-0.83
					c0.03,0.021,0.04,0.03,0.04,0.03l-0.05-0.229C21.52,396.18,21.45,394.22,21.37,392.21z"/>
				<path fill="#FDFEFF" d="M21.79,414.42c-0.11-0.05-0.22-0.11-0.32-0.189C21.6,414.31,21.71,414.37,21.79,414.42z"/>
				<path fill="#FDFEFF" d="M21.53,398.24c-0.13-0.061-0.25-0.141-0.38-0.23C21.32,398.11,21.45,398.19,21.53,398.24z"/>
				<path fill="#FDFEFF" d="M19.36,275.43c-0.16-1.47-0.14-2.87-0.18-4.16c-0.06-1.3,0.05-2.47,0.05-3.52
					c0.01-1.06,0.1-1.98,0.18-2.73c0.1-1.1,0.17-1.85,0.2-2.19c0.01-0.04,0.01-0.08,0.01-0.11c0-0.01,0-0.02,0-0.03v-0.01
					c0.01-0.03,0.01-0.05,0.01-0.05l5.7,37.28c-0.14-0.33-0.29-0.66-0.45-0.98c-0.54-1.44-1.17-2.87-1.65-4.43
					c-0.25-0.78-0.53-1.54-0.77-2.34l-0.66-2.41c-0.46-1.6-0.8-3.25-1.15-4.88c-0.27-1.64-0.64-3.24-0.8-4.84
					c-0.1-0.79-0.2-1.58-0.3-2.34C19.49,276.92,19.42,276.17,19.36,275.43z"/>
				<path fill="#808285" d="M19.63,262.63c0,0,0,0.02-0.01,0.05C19.63,262.65,19.63,262.63,19.63,262.63z"/>
				<path fill="#808285" d="M19.62,262.69c0,0.01,0,0.02,0,0.03h-0.01C19.62,262.71,19.62,262.7,19.62,262.69z"/>
				<path fill="#808285" d="M19.62,262.72c0,0.03,0,0.07-0.01,0.11c0-0.03,0-0.05,0-0.07C19.62,262.75,19.62,262.73,19.62,262.72z"
					/>
				<path fill="#808285" d="M19.62,262.72c0,0.01,0,0.03-0.01,0.04c0-0.01,0-0.03,0-0.04H19.62z"/>
				<path fill="#808285" d="M19.52,263.24c0.03-0.18,0.06-0.32,0.07-0.42c0.01-0.01,0.01-0.02,0.01-0.03
					c-0.03,0.15-0.05,0.3-0.07,0.45H19.52z"/>
				<path fill="#808285" d="M19.52,263.24h0.01c-0.04,0.19-0.08,0.37-0.1,0.56C19.46,263.61,19.49,263.42,19.52,263.24z"/>
				<path fill="#808285" d="M21.1,397.98c-1.01-0.73-2.07-2.141-3.14-4.09l-0.15-0.77c0.56,1.12,1.09,2.08,1.59,2.82
					c0.61,0.91,1.17,1.51,1.57,1.87c0.32,0.24,0.53,0.4,0.62,0.46c-0.02-0.01-0.04-0.02-0.06-0.029c-0.08-0.05-0.21-0.13-0.38-0.23
					C21.13,398,21.12,397.99,21.1,397.98z"/>
				<path fill="#808285" d="M25.63,301.84c-4.44-8.73-7.51-21.62-6.68-33.65c0.1-1,0.21-1.88,0.3-2.63c0.18-1.4,0.3-2.35,0.36-2.73
					c-0.03,0.34-0.1,1.09-0.2,2.19c-0.08,0.75-0.17,1.67-0.18,2.73c0,1.05-0.11,2.22-0.05,3.52c0.04,1.29,0.02,2.69,0.18,4.16
					c0.06,0.74,0.13,1.49,0.19,2.26c0.1,0.76,0.2,1.55,0.3,2.34c0.16,1.6,0.53,3.2,0.8,4.84c0.35,1.63,0.69,3.28,1.15,4.88
					l0.66,2.41c0.24,0.8,0.52,1.56,0.77,2.34c0.48,1.56,1.11,2.99,1.65,4.43c0.16,0.32,0.31,0.65,0.45,0.98L25.63,301.84z"/>
				<path fill="#808285" d="M19.23,396.16c-0.37-0.48-0.76-1.06-1.16-1.72l-0.11-0.55c1.07,1.95,2.13,3.36,3.14,4.09
					c-0.05-0.03-0.1-0.07-0.16-0.101C20.51,397.58,19.89,397.04,19.23,396.16z"/>
				<path fill="#808285" d="M19.25,265.56c-0.09,0.75-0.2,1.63-0.3,2.63c0.1-1.48,0.26-2.93,0.48-4.37c0-0.01,0-0.02,0-0.02
					c0.02-0.19,0.06-0.37,0.1-0.56c0.02-0.15,0.04-0.3,0.07-0.45c0-0.01,0-0.02,0.01-0.03c0,0.02,0,0.04,0,0.07
					C19.55,263.21,19.43,264.16,19.25,265.56z"/>
				<path fill="#808285" d="M18.58,277.84c-0.03-0.79-0.06-1.57-0.09-2.33c-0.05-0.79-0.04-1.55-0.03-2.29c0-0.06,0-0.12,0.01-0.17
					c0.16-1.82,0.32-3.45,0.48-4.86c-0.83,12.03,2.24,24.92,6.68,33.65l0.21,1.41c-0.67-1.09-1.24-2.34-1.87-3.6
					c-0.3-0.72-0.61-1.45-0.92-2.19c-0.33-0.73-0.62-1.5-0.87-2.3c-0.27-0.79-0.56-1.58-0.81-2.39l-0.7-2.47
					c-0.45-1.66-0.8-3.36-1.14-5.04c-0.28-1.69-0.58-3.36-0.72-5.01C18.73,279.44,18.63,278.63,18.58,277.84z"/>
				<path fill="#808285" d="M19.43,263.82c-0.27,1.51-0.51,3.02-0.71,4.52c0.03-0.23,0.05-0.46,0.07-0.68
					c0.09-1.07,0.25-1.96,0.4-2.7c0.14-0.74,0.25-1.32,0.33-1.72c-0.03,0.18-0.06,0.37-0.09,0.56
					C19.43,263.8,19.43,263.81,19.43,263.82z"/>
				<path fill="#808285" d="M18.95,268.19c-0.16,1.41-0.32,3.04-0.48,4.86c0.01-0.62,0.03-1.22,0.04-1.8c-0.02-1,0.1-1.95,0.2-2.81
					c0-0.03,0.01-0.07,0.01-0.1c0.2-1.5,0.44-3.01,0.71-4.52C19.21,265.26,19.05,266.71,18.95,268.19z"/>
				<path d="M18.49,275.51c0.03,0.76,0.06,1.54,0.09,2.33c0.05,0.79,0.15,1.6,0.23,2.41c0.14,1.65,0.44,3.32,0.72,5.01
					c0.34,1.68,0.69,3.38,1.14,5.04l0.7,2.47c0.25,0.81,0.54,1.6,0.81,2.39c0.25,0.8,0.54,1.57,0.87,2.3
					c0.31,0.74,0.62,1.47,0.92,2.19c0.63,1.26,1.2,2.51,1.87,3.6l3.1,20.27c-0.19,0.6-0.39,1.19-0.59,1.78
					c-0.26-0.22-0.57-0.49-0.92-0.8c-0.56-0.56-1.22-1.26-1.88-2.2c-0.68-0.92-1.33-2.09-2.02-3.38c-2.68-5.29-4.5-13.65-5.17-22.13
					c-0.38-4.24-0.46-8.52-0.43-12.53c0.04-2.01,0.09-3.95,0.18-5.79c0.09-1.84,0.21-3.58,0.34-5.18c0-0.02,0-0.05,0.01-0.07
					C18.45,273.96,18.44,274.72,18.49,275.51z"/>
				<path fill="#808285" d="M18.71,268.44c-0.1,0.86-0.22,1.81-0.2,2.81c-0.01,0.58-0.03,1.18-0.04,1.8
					c-0.01,0.05-0.01,0.11-0.01,0.17c-0.01,0.02-0.01,0.05-0.01,0.07c-0.13,1.6-0.25,3.34-0.34,5.18c-0.09,1.84-0.14,3.78-0.18,5.79
					c-0.03,4.01,0.05,8.29,0.43,12.53c0.67,8.48,2.49,16.84,5.17,22.13c0.69,1.29,1.34,2.46,2.02,3.38c0.66,0.94,1.32,1.64,1.88,2.2
					c0.35,0.31,0.66,0.58,0.92,0.8c0,0.03-0.01,0.05-0.02,0.07C19.08,318.9,15.05,294.62,18.71,268.44z"/>
				<path fill="#808285" d="M18.71,268.44c-3.66,26.18,0.37,50.46,9.62,56.93c-0.01,0.03-0.02,0.06-0.03,0.08
					c-0.28-0.17-0.61-0.4-0.99-0.68c-0.61-0.5-1.33-1.15-2.07-2.03c-0.76-0.87-1.51-1.99-2.26-3.29c-1.45-2.65-2.81-6.07-3.79-9.96
					c-0.99-3.88-1.65-8.18-2.03-12.51c-0.17-2.17-0.29-4.34-0.33-6.48c-0.06-2.14,0-4.25,0.05-6.29c0.13-4.07,0.52-7.84,0.91-11.05
					c0.38-3.21,0.91-5.83,1.24-7.67c0.28-1.37,0.48-2.29,0.56-2.67c-0.01,0.1-0.04,0.24-0.07,0.42c-0.08,0.4-0.19,0.98-0.33,1.72
					c-0.15,0.74-0.31,1.63-0.4,2.7c-0.02,0.22-0.04,0.45-0.07,0.68C18.72,268.37,18.71,268.41,18.71,268.44z"/>
				<path fill="#FDFEFF" d="M3.26,328.15c-0.32-4.18-0.45-7.69-0.37-10.14c0.01-0.3,0.02-0.59,0.04-0.86l14.88,75.97
					c-0.11-0.23-0.23-0.47-0.35-0.72c-0.64-1.47-1.34-3.14-2.02-5.03c-0.7-1.87-1.37-3.96-2.05-6.19c-0.67-2.23-1.32-4.61-1.99-7.08
					c-1.31-4.95-2.54-10.32-3.62-15.74c-1.12-5.4-2.08-10.86-2.84-16.02C4.19,337.18,3.57,332.34,3.26,328.15z"/>
				<path fill="#FDFEFF" d="M19.4,395.94c-0.5-0.74-1.03-1.7-1.59-2.82L2.93,317.15c0,0,0,0,0-0.01c0.03-0.82,0.07-1.48,0.13-1.97
					c0.06-0.66,0.08-1.01,0.08-1.01l18.44,83.91c0,0.069,0,0.14,0.01,0.199c-0.09-0.06-0.3-0.22-0.62-0.46
					C20.57,397.45,20.01,396.85,19.4,395.94z"/>
				<path fill="#808285" d="M3.14,314.16c0,0-0.02,0.35-0.08,1.01c-0.06,0.49-0.1,1.15-0.13,1.97l-0.08-0.39
					c0.05-0.63,0.11-1.23,0.18-1.8C3.1,314.44,3.14,314.16,3.14,314.16z"/>
				<path fill="#808285" d="M17.96,393.89c-7.87-14.35-16.6-58.15-15.11-77.14l0.08,0.39c0,0.01,0,0.01,0,0.01
					c-0.02,0.27-0.03,0.56-0.04,0.86c-0.08,2.45,0.05,5.96,0.37,10.14c0.31,4.19,0.93,9.03,1.68,14.19
					c0.76,5.16,1.72,10.62,2.84,16.02c1.08,5.42,2.31,10.79,3.62,15.74c0.67,2.47,1.32,4.85,1.99,7.08
					c0.68,2.23,1.35,4.32,2.05,6.19c0.68,1.89,1.38,3.56,2.02,5.03c0.12,0.25,0.24,0.49,0.35,0.72L17.96,393.89z"/>
				<path fill="#808285" d="M3.03,314.95c-0.07,0.57-0.13,1.17-0.18,1.8L2.8,316.5c0.07-0.54,0.13-0.99,0.19-1.35
					C3,315.08,3.01,315.01,3.03,314.95z"/>
				<path fill="#808285" d="M2.85,316.75c-1.49,18.99,7.24,62.79,15.11,77.14l0.11,0.55c-0.32-0.52-0.64-1.09-0.98-1.7
					c-0.73-1.42-1.52-3.06-2.25-4.94c-0.77-1.86-1.51-3.94-2.26-6.15c-0.74-2.22-1.48-4.58-2.16-7.07
					c-1.37-4.97-2.67-10.35-3.8-15.79c-1.07-5.46-2-10.98-2.7-16.19c-0.37-2.6-0.63-5.14-0.86-7.55c-0.21-2.42-0.38-4.7-0.47-6.82
					c-0.22-4.23-0.11-7.78,0.07-10.24c0.04-0.56,0.09-1.06,0.14-1.49L2.85,316.75z"/>
				<path d="M19.29,411.87c-0.76-1.03-1.55-2.44-2.37-4.13c-0.79-1.721-1.63-3.7-2.44-5.94c-1.65-4.46-3.17-9.93-4.64-15.84
					c-0.74-2.95-1.42-6.04-2.07-9.2c-0.64-3.16-1.26-6.38-1.8-9.63c-1.15-6.47-2.08-13.02-2.73-19.2c-0.33-3.08-0.62-6.08-0.83-8.92
					c-0.23-2.85-0.37-5.55-0.46-8.04c-0.07-2.49-0.11-4.78-0.1-6.81c0.03-2.03,0.07-3.8,0.17-5.25c0.07-1.45,0.17-2.6,0.25-3.37
					c0.04-0.49,0.08-0.83,0.09-1.03c0.01-0.11,0.02-0.17,0.02-0.17l0.42,2.16c-0.05,0.43-0.1,0.93-0.14,1.49
					c-0.18,2.46-0.29,6.01-0.07,10.24c0.09,2.12,0.26,4.4,0.47,6.82c0.23,2.41,0.49,4.95,0.86,7.55c0.7,5.21,1.63,10.73,2.7,16.19
					c1.13,5.44,2.43,10.82,3.8,15.79c0.68,2.49,1.42,4.85,2.16,7.07c0.75,2.21,1.49,4.29,2.26,6.15c0.73,1.88,1.52,3.52,2.25,4.94
					c0.34,0.61,0.66,1.18,0.98,1.7l3.94,20.1H22c0,0,0,0-0.01-0.01c-0.01,0-0.02-0.011-0.04-0.03c-0.1-0.07-0.35-0.24-0.74-0.51
					C20.72,413.6,20.03,412.91,19.29,411.87z"/>
				<path fill="#808285" d="M21.47,414.23c-10.72-6.87-23.12-70.38-19.13-99.59c0-0.05,0.01-0.09,0.02-0.13
					c-0.01,0.2-0.05,0.54-0.09,1.03c-0.08,0.77-0.18,1.92-0.25,3.37c-0.1,1.45-0.14,3.22-0.17,5.25c-0.01,2.03,0.03,4.32,0.1,6.81
					c0.09,2.49,0.23,5.19,0.46,8.04c0.21,2.84,0.5,5.84,0.83,8.92c0.65,6.18,1.58,12.73,2.73,19.2c0.54,3.25,1.16,6.47,1.8,9.63
					c0.65,3.16,1.33,6.25,2.07,9.2c1.47,5.91,2.99,11.38,4.64,15.84c0.81,2.24,1.65,4.22,2.44,5.94c0.82,1.689,1.61,3.1,2.37,4.13
					c0.74,1.04,1.43,1.729,1.92,2.12c0.39,0.27,0.64,0.439,0.74,0.51c-0.02,0-0.05-0.01-0.07-0.03c-0.02-0.01-0.05-0.029-0.09-0.05
					C21.71,414.37,21.6,414.31,21.47,414.23z"/>
				<path fill="#808285" d="M19.13,412.09c-0.82-0.99-1.68-2.359-2.58-4.01c-0.87-1.68-1.82-3.62-2.67-5.87
					c-0.89-2.21-1.75-4.69-2.6-7.33c-0.83-2.66-1.69-5.48-2.43-8.46c-0.76-2.97-1.48-6.08-2.16-9.25c-0.67-3.17-1.33-6.4-1.89-9.67
					c-1.11-6.54-1.99-13.14-2.59-19.37c-0.33-3.12-0.52-6.15-0.68-9.02c-0.15-2.87-0.22-5.6-0.25-8.11
					c-0.03-2.52,0.03-4.82,0.12-6.86c0.12-2.04,0.22-3.81,0.39-5.27c0.12-1.46,0.3-2.58,0.42-3.35c0.05-0.38,0.1-0.68,0.13-0.88
					c-3.99,29.21,8.41,92.72,19.13,99.59c-0.09-0.04-0.18-0.101-0.29-0.16C20.67,413.72,19.92,413.11,19.13,412.09z"/>
			</g>
			<g>
				<path fill="none" stroke="#808285" d="M143.7,333.53l-0.68,0.12h-3.84l-1.8,0.49l-1.49-0.49l-7.86,0.77l-2.67-0.77
					c-2.18,0.98-3.76,1.48-4.71,1.48h-3.77l-2.29-0.99c0,0.47-0.32,0.8-0.93,0.99c-1.16,0-2.28,0.19-3.38,0.56
					c-1.09,0.38-2.12,0.57-3.07,0.57l-2.54-1.13l-2.16,1.13l-0.25,0.91h-1.12l-0.68,1.41l-0.49,9.39l0.49,1.34l-0.25,1.55l0.13,4.16
					l-0.37,4.23v1.28c0,0.61-0.12,1.06-0.34,1.37c-0.23,0.3-0.41,1.07-0.53,2.3l0.99,1.83l-0.25,2.33l-0.86,0.7
					c0,0.57,0.24,1.29,0.74,2.19l-0.74,1.41v1.62l-1,1.69l0.62,4.1l-0.24,5.92l-0.93,3.74c0.16,0.38,0.25,0.66,0.25,0.85
					c0,0.28-0.08,0.6-0.22,0.95c-0.15,0.35-0.17,0.71-0.06,1.06c0.1,0.35,0.15,0.64,0.15,0.88c0,0.28-0.21,0.9-0.62,1.87
					c-0.41,0.96-0.56,1.561-0.43,1.8c0.04,0.091,0.18,0.841,0.43,2.25c-0.41,1.271-0.62,2.24-0.62,2.9c0,0.65,0.08,1.71,0.25,3.17
					c-0.5,0-0.94-0.07-1.33-0.21s-0.63-0.21-0.71-0.21c-0.67,0-1-1.39-1-4.16l0.25-2.189c0-0.801-0.08-1.95-0.25-3.46
					c-0.16-1.5-0.24-2.61-0.24-3.31l0.74-10.16c-0.66-1.27-0.99-1.98-0.99-2.12c0-0.51,0.2-0.96,0.62-1.34
					c-0.33-0.47-0.5-0.89-0.5-1.27c0-0.28,0.25-0.56,0.75-0.85c-0.33-0.94-0.5-1.57-0.5-1.9c0-0.52,0.15-1.21,0.43-2.08
					c0.29-0.87,0.44-1.38,0.44-1.52l-0.13-2.33c0-0.28,0.39-1.34,1.18-3.17c-0.7,0-1.05-0.64-1.05-1.9c0-2.22,0.25-3.46,0.74-3.74
					v-5.93l-0.74-2.89l0.74-6.07l-0.74-4.3l0.74-3.39c-0.33-1.31-0.91-1.97-1.73-1.97c-0.46,0-0.85,0.23-1.18,0.7l-1.8,0.21
					c-0.66,0.05-1.32,0.31-1.98,0.78l-1.55-0.14l-1.48,0.14v0.49h-1.06c-1.4,0-2.54-0.3-3.4-0.91l-0.25,0.91l-2.66-0.91l-7.38-0.28
					l-2.91,0.98c-2.19-2.16-3.28-3.59-3.28-4.3c0-0.19,0.17-0.96,0.5-2.33h2.04l8.98,2.05l2.17-0.85l5.94,0.28l5.58,0.57l3.71-1.62
					h1l1.05-3.32l1.73,0.64l0.37,1.41l0.81-0.43c0.66,0.99,1.63,1.81,2.91,2.47l2.04-0.77c1.37,0,2.54,0.63,3.54,1.9l0.74-1.13
					l4.71-1.06l2.91,0.29c0.82,0.42,1.59,0.63,2.29,0.63h0.62c0.78-0.33,1.42-0.49,1.92-0.49l1.79,0.35c0.38,0,0.62-0.17,0.75-0.49
					l2.54-0.43l2.91,0.78c0.41,0.47,1,0.55,1.76,0.24c0.77-0.3,1.27-0.45,1.52-0.45l2.29,0.49l6.32-0.14l2.79,0.56h0.99"/>
				<path fill="none" stroke="#808285" d="M213.83,355.66l-0.56,0.63l-1.87-0.28l-1.64,1.55l-1.24-0.99l-4.53,1.63l-0.85,1.97
					l-1.81-1.83l-2.67,4.44h0.91c-0.11,1.6-0.62,3.04-1.53,4.3h0.23c0.34,0,0.51,0.36,0.51,1.06c0,2.5-0.25,4.57-0.74,6.21
					l0.62,0.71c0,0.8-0.12,1.38-0.36,1.76c-0.25,0.38-0.37,0.75-0.37,1.13c0,0.56,0.15,1.48,0.45,2.75l-0.68,0.71l0.11,6.98
					l-1.02,7.76h0.23l-0.45,2.331l0.45,0.989l-0.23,2.32l0.4,1.21c0.27,0.94,0.4,1.88,0.4,2.82c0,0.47-0.27,0.96-0.8,1.479l0.12,0.7
					c0,0.99-0.36,1.86-1.08,2.62l-0.11-1.49c-1.06-2.02-1.59-3.41-1.59-4.16v-5.5l-0.51-1.84l0.85-0.91l-0.85-0.57l-0.33-2.32v-2.12
					l0.33-0.14l-0.33-1.62l0.33-5.65l-0.11-5.22l0.85-3.74l-0.74-1.27l0.51-1.34v-8.95l0.34-4.59l-2.2,0.99l-0.57-0.85l-0.96,0.85
					l-1.13-0.57c-1.29,0.8-2.32,1.12-3.12,0.96c-0.79-0.17-1.34-0.25-1.64-0.25c-0.56,0-1.08,0.09-1.53,0.28l-4.53,1.91l-5.32-0.85
					l-0.57,0.28c-1.02-0.47-1.79-0.7-2.32-0.7c-0.41,0-1.07,0.21-1.95,0.63c-0.89,0.42-1.48,0.64-1.79,0.64l-1.81-0.57l-0.73,1.98
					l-1.98-1.84l-2.89,0.85l-1.13-0.85l-0.97,1.13l-1.36-0.21c-0.45-0.05-1.15-0.4-2.09-1.06l-0.11,0.99l-0.91-0.42
					c-1.47,0-2.75,0.21-3.85,0.63c-1.09,0.42-1.64,1.86-1.64,4.3v5.3l-0.45,3.81l0.45,2.53l-1.02,2.75l1.02,2.47l-0.79,6.35
					l0.56,2.33l-0.22,3.74l0.79,2.471l-0.34,1.199l0.22,2.4l-0.45,0.28c-1.32-0.23-2.02-1.13-2.09-2.681l-0.23-6.84
					c-1.55-2.26-2.32-3.65-2.32-4.16c0-1.09,0.58-1.86,1.75-2.33l-0.79-0.99l0.11-2.33l-0.45-1.76l-0.62-11.5v-3.67l-0.46-1.97
					l-1.98-1.48l-0.22-4.17l2.66-2.19c0.79-2.86,1.19-5.26,1.19-7.19c0-0.52-0.08-1.24-0.23-2.19l1.02,0.57l-0.56-1.41l-0.35-5.36
					l0.68-3.32l-0.55-4.57l-0.13-1.07v-0.65v-2.53l0.57-3.73l2.1-1.63c0.83,0.94,1.71,1.58,2.66,1.91l0.11,2.33l0.91,1.41
					c-0.53,2.35-0.8,3.69-0.8,4.02c0,0.75,0.19,1.24,0.57,1.48c0.07,0.28,0.11,0.75,0.11,1.41c0,1.55-0.41,5.27-1.24,11.14
					l0.79,2.34l-0.79,1.41c-0.04,1.41-0.23,3.29-0.57,5.64h2.44l1.24,0.56l3-0.56l1.87,0.28l2.55-0.28l2.21,1.34V358
					c0-0.66,0.22-0.99,0.68-0.99c0.3,0,0.65,0.19,1.07,0.56h1.98l4.48-0.28c0.83,0,1.41,0.1,1.75,0.28l0.85-1.27l0.8,0.71
					c1.73,0.24,2.81,0.42,3.22,0.56c0.46-0.28,0.82-0.42,1.08-0.42l0.45,0.14l12.63-1.69l5.09,0.42l-1.02-2.04l0.57-0.85l-0.57-3.17
					l0.57-2.33l-0.79-6.21l0.79-2.33l-2.32-8.53c-0.15-0.57-0.23-0.99-0.23-1.27c0-0.71,0.25-1.3,0.74-1.77
					c0.49-0.47,0.83-0.7,1.02-0.7h0.79l-0.45-2.61h1.75l0.57,1.62l2.1-0.57v2.26l1.35-0.56v2.61l-0.79,1.9l1.02,3.74v1.84l0.62,2.04
					l-0.85,2.89l0.23,2.33l-0.68,11.57l2.78-0.56l2.54-0.22l4.31-1.41l1.98,0.29l1.47-0.29h1.59"/>
				<path fill="none" stroke="#808285" d="M270.88,353.62c0.07,0.24,0.14,0.5,0.21,0.77l1.42,5.15c0.35,1.22,0.52,2.02,0.52,2.4
					v0.98l-1,3.18l-0.31,4.37l-0.94,1.27l-1.1,4.66c-0.11,0.61-0.21,1.06-0.32,1.34c-0.1,0.28-0.32,0.51-0.68,0.7l-1.15,0.64
					l-6.33,6.84l-1.46,0.99c-0.46,0.28-1.17,1.05-2.15,2.33v-0.85l-0.23,0.24l-4.17,4.34l-1.93,1.13l-4.61,3.39
					c-0.66-0.42-1.31-0.641-1.93-0.641c-0.49,0-0.87,0.24-1.13,0.71c-0.26,0.471-0.53,0.771-0.81,0.921l-0.94-0.29l-1.73,2.189
					l-0.89-0.63l-0.42,0.77h-1.83l-0.94,1.271l-3.19-0.28l-5.18,1.271c-0.21-0.101-0.53-0.141-0.95-0.141l-1.62,0.28l-1.83-0.42
					l-0.42-0.57l-4.5-0.979l-2.14-1.48h-0.95v-2.76l-1.51,0.78l-0.74-1.41c-0.31-0.52-0.66-0.92-1.04-1.2l-1.68-1.06
					c-0.56-2.12-0.87-4.56-0.94-7.33l-0.53-0.99l-0.21-5.79l1.47-6.2l-0.21-3.04l1-1.2l-0.79-2.47l1.83-1.97v-2.05l0.63-1.9v-1.55
					l0.79-1.77L213,357l0.53-0.42l0.3-0.92l0.64-1.97l1.3-4.03l4.19-8.96c0.63-0.28,1.08-0.78,1.36-1.51
					c0.28-0.73,1.03-1.68,2.25-2.86l-0.21-1.27h1.31l-0.31-0.85c0.8-1.13,1.9-2,3.29-2.61l0.79-1.2h-0.1c0-0.04,0.68-0.18,2.04-0.42
					l4.91-0.85l3.09,0.57l2.36-0.14h2.77c0.74,0.19,1.24,0.28,1.52,0.28c0.98,0,1.73-0.42,2.25-1.27c0.35,0.47,0.75,0.7,1.2,0.7
					c0.21,0,0.39-0.04,0.53-0.14c0.03,0.94,0.38,1.41,1.04,1.41c0.28,0.43,1.07,0.73,2.36,0.92l0.79,0.99l1.56,0.28h2.05l2.93,2.05
					h-0.68l1.98,1.9c0.25,0.24,0.6,0.9,1.05,1.98l1.57,0.98l0.79,1.77l1.83,0.98l3.56,7.98C270.05,350.82,270.4,351.9,270.88,353.62
					z"/>
				<path fill="none" stroke="#808285" d="M255.55,386.9l0.73-2.75l0.32,0.14l0.21-0.99c0.83-0.32,1.51-0.96,2.04-1.9l0.99,0.43
					l0.52-1.41l1.73-1.77l2.88-4.3l1.73-0.85l0.84-2.47l1.41-1.34l-0.32-2.61l0.74-2.26l-0.42-4.23l0.62-1.41l-0.94-3.31l0.11-1.06
					c0-0.35-0.05-0.73-0.15-1.14c-0.04-0.13-0.07-0.27-0.12-0.41c-0.17-0.57-0.9-1.39-2.19-2.47l-0.79-2.75l-0.63-0.43l-0.31-1.62
					l-3.04-4.3l-2.67-3.03l-0.83,0.42l-3.88-3.32c-0.34-0.28-1.09-0.54-2.22-0.77c-1.13-0.24-2-0.61-2.59-1.13
					c0,0.09-0.11,0.14-0.32,0.14c-0.13,0-0.67-0.09-1.62-0.28l-0.52,0.49l-1.62-0.78l-1.05,0.78c-0.94-0.42-1.59-0.63-1.94-0.63
					c-0.21,0-0.51,0.1-0.91,0.31c-0.4,0.21-0.71,0.32-0.92,0.32c-0.35,0-0.59-0.12-0.73-0.35c-0.73,0.51-1.32,1.12-1.75,1.8
					c-0.44,0.68-1.15,1.3-2.12,1.87l-1.52-0.5l-1.47,1.34l-1.72-0.28l-0.63,0.35c-0.21,0.14-0.4,0.32-0.58,0.53
					c-0.17,0.21-0.39,0.46-0.65,0.74c-0.26,0.29-0.57,0.6-0.94,0.96c-0.37,0.35-0.77,0.74-1.21,1.16c-0.43,0.42-0.91,0.84-1.43,1.27
					c-0.25,0.23-0.72,1.2-1.42,2.89l0.11,2.05l-1.94,1.13c-0.21,0.13-0.64,0.72-1.31,1.76c-0.45,1.4-1.01,2.56-1.65,3.49
					c-0.09,0.14-0.18,0.27-0.28,0.39v1.76c-0.84,0.47-1.33,1.06-1.47,1.76l-0.99,4.17l-1.78,1.55c-0.25,5.88-0.62,9.29-1.13,10.23
					c-0.5,0.94-0.85,1.8-1.04,2.57c-0.2,0.78-0.34,1.63-0.42,2.54c-0.09,0.92-0.34,2.22-0.76,3.92l0.63,1.69l0.31,2.61l0.99,1.76
					c0.14,0.29,0.25,0.64,0.32,1.06l0.21,1.7c0.68,1.03,1.44,1.91,2.29,2.64c0.84,0.73,1.77,1.31,2.78,1.73
					c2.03,0.84,3.2,1.22,3.51,1.12l3.45-1.19l0.74,1.06h1.73v0.979h1.67l0.47-1.76l1.68-0.28l4.29,0.7c0.38-0.94,0.82-1.41,1.3-1.41
					l0.42,0.14c1.57-1.36,2.73-2.04,3.46-2.04h0.42l2.14-1.84c0.28-0.19,1.03-0.33,2.25-0.42l1.36-1.62
					c2.59-0.1,4.07-0.33,4.45-0.71c0.39-0.37,0.73-0.77,1.02-1.2C253.78,387.61,254.47,387.23,255.55,386.9z"/>
				<path fill="none" stroke="#808285" d="M351.67,396.08c-0.57,0.61-1.21,1.31-1.92,2.12l-1.2-0.57l-1.42,2.89
					c-1.149,0.101-2.25,0.521-3.29,1.271l-3.09-0.99l-1.73,0.99l-0.52,1.27c-1.02-1.029-1.66-1.55-1.94-1.55
					c-0.14,0-0.21,0.141-0.21,0.42l-0.58-0.14l-0.939,1.27l-0.94-1.55l-0.779,0.42c-0.601-0.66-1.17-0.979-1.73-0.979h-3.399
					l-1-1.49l-1.15,0.29l-1.72-1.27l-1.051,0.699l-0.79-1.689H320.7l-0.99-1.62h-1.26c-0.101,0-0.32-0.36-0.65-1.06
					c-0.33-0.71-0.83-1.32-1.49-1.84l-3.25-2.32c-1.88-1.23-3.35-3.34-4.39-6.35h-1.26l-1.72-2.9l-3.15-3.31l-3.5-5.5l-1-0.43
					l-1.62-2.33c-0.17-0.28-0.9-0.7-2.2-1.26c-0.49,0.37-0.92,0.56-1.3,0.56c-0.32,0-0.67-0.19-1.05-0.56v0.14
					c0,0.09-0.07,0.14-0.21,0.14h-1.1l-1.05-2.05c0.39-0.56,0.63-1.53,0.74-2.89l1.31-0.57v-0.84l1.36-0.42
					c0.45-0.47,0.88-0.71,1.3-0.71c0.28,0,0.58,0.12,0.89,0.35c0.32,0.24,0.51,0.36,0.58,0.36c0.1,0,0.23-0.15,0.37-0.43
					c0.31,1.74,1.81,2.61,4.5,2.61c2.33,0,4.15-0.3,5.44-0.91v-0.43l8.06-0.42c1.851-1.27,3.801-1.9,5.86-1.9l0.68,0.28l1.78-0.85
					l0.47-0.84l1.261,0.14l1.62-0.85h1.149c0.59,0,0.96-0.08,1.101-0.25c0.14-0.16,0.21-0.53,0.21-1.09v-0.56
					c0.869-0.15,1.31-0.33,1.31-0.57c2.68-0.94,4.03-2.54,4.03-4.8c0-1.08-0.391-2.13-1.15-3.17l-3.56-4.58h-0.84
					c-1.641-1.37-2.69-2.05-3.141-2.05h-1.05l-2.14-1.27h-1.311l-1.359-1.48h-2.461l-1-0.57l-5.859-0.56l-0.99-0.78l-0.63,0.5
					l-1.2-0.5l-1.15,0.5l-3.15-0.5l-3.19,0.78l-1.72-0.78l-1.94,0.28l-1.68-0.28l-1.3,0.78l-0.95-0.5l-1.93,1.63l-1.52-0.29
					c-0.49,1.42-1.03,2.61-1.62,3.6l0.68,2.05l-0.32,8.39l0.74,7.2c-0.77,3.34-1.17,5.41-1.21,6.21l-0.03,0.86l-0.7,17.62
					l0.84,10.58l-0.63,5.64v1.41c0,0.761-0.68,1.13-2.04,1.13h-0.42l0.52-5.569l-0.52-2.19l-0.94-5.92l0.62-0.57
					c-0.87-1.46-1.3-2.42-1.3-2.89c0-0.89,0.4-1.86,1.2-2.89l-0.89-2.33h-0.1c-0.14,0-0.21-0.05-0.21-0.14
					c0-0.52,0.43-1.86,1.3-4.02c-0.48-0.71-0.73-1.62-0.73-2.75l0.32-2.33v-1.13c0.49-1.22,0.73-2.23,0.73-3.03
					c0-0.9-0.24-2.03-0.73-3.39l0.73-2.4l-0.32-2.18l0.63-0.71c-0.21-0.42-0.31-0.92-0.31-1.48c0-0.71,0.24-1.86,0.73-3.46
					l-1.05,0.28l-0.62-3.88l0.52-2.75l-0.52-5.92l0.52-0.71c-1.12-1.55-1.97-2.33-2.56-2.33h-0.32l-0.78,0.99l-2.46-0.28l-1.62,2.75
					c-0.74-0.8-1.42-1.27-2.05-1.41c-0.55-0.99-0.83-1.76-0.83-2.33c0-0.47,0.08-0.93,0.23-1.37c0.16-0.45,0.43-0.86,0.81-1.24
					l1.42-1.27l3.24-0.49l4.4-0.28l0.94-0.99v-0.43c0-1.45,0.82-2.18,2.46-2.18h1.31c0.38,2.02,1.03,3.03,1.93,3.03
					c0.21,0,0.96-0.42,2.26-1.27l2.66,0.85l4.19-0.85l5.55,0.85l7.85,0.28l3.921,0.99h3.039l1.15,1.34
					c0.11-0.57,0.33-0.85,0.68-0.85c0.28,0,0.631,0.29,1.051,0.85c0,0.66,0.13,1.22,0.409,1.69l1.101,0.29v-1.84l4.3,2.33l1.46,1.55
					l0.21-0.42c0.63,0.52,1.57,0.84,2.83,0.99l0.73,1.2l0.939,0.28c1.15,2.4,2.03,4.19,2.64,5.36c0.61,1.18,0.921,2.23,0.921,3.18
					c0,1.73-0.551,3.26-1.65,4.58s-2.29,2.96-3.59,4.94l-1.09,0.07l-0.841,0.07c-0.21,0-0.819,0.33-1.829,0.99l-0.421,1.2h-3.039
					l-0.83,0.99c-0.141,0.18-0.471,0.4-1,0.63l-1.57,0.64c-1.811,0-3.41,1.01-4.811,3.03l-1.729-1.56l-1.521,0.99
					c-0.31-0.28-0.59-0.42-0.829-0.42c-0.421,0-0.96,0.42-1.631,1.27l-1.46-0.84l-1.409,0.84l-0.53-0.84l-1.93,1.48l-2.57-0.43
					c-0.52,0-1.06,0.1-1.62,0.28l1.05,1.98l2.62,3.03l0.73,1.77l4.18,4.3l0.939,2.33l0.681,1.06c0.21,0.28,0.67,1.57,1.359,3.88
					l2.881,0.14l3.25,4.44l1.729,1.06l2.35,1.98l2.25,0.91l3.19,1.7l1.21-0.29l0.521,0.57l0.21-0.28l0.42,0.979l1.52-0.42
					l0.311,1.48l1.199-1.061l1.261,0.5l3.659-0.5l1.471,0.5l5.18-1.2l3.82-1.41l0.26,0.84l0.74-1.76h1.62l0.42-1.34"/>
				<path fill="none" stroke="#808285" d="M406.37,333.47l0.61-1.05l-0.211-0.99l1.62-1.06l0.32,1.06l1.521-0.43
					c-0.2,0.95-0.311,1.82-0.32,2.59"/>
				<polyline fill="none" stroke="#808285" points="406.44,343.44 406.56,342.22 405.31,340.39 405.56,339.37 				"/>
				<path fill="none" stroke="#808285" d="M402.1,390.13l-1.77-0.37l-1.15-1.9l-0.52,0.92l-0.99-1.62l-1.729,0.7l-2.101-2.26
					l-1.09,0.28l-2.15-0.56l-1.25-1.77l-0.79,0.29l-6.54-5.65l-0.729-1.27l-2.26-1.34l-1.41-2.39l-1.26-0.92l-1.721-2.33
					l-4.819-2.82l-3.45-5.93l-1.47-0.14l-0.78-1.62c-0.98-0.56-2.11-1.86-3.4-3.88h0.521c-0.66-0.8-1.24-1.91-1.721-3.32
					l-0.739-0.35h-0.21c-0.761,0-1.261,0.33-1.49,0.99c-0.23,0.66-0.48,2.07-0.76,4.23l-0.99,7.41l0.99,4.44l-1.521,7.41
					c0.42,2.96,0.63,4.58,0.63,4.87v0.56c0,1.18-0.229,2.12-0.68,2.82c-0.45,0.71-0.68,1.23-0.68,1.56c0,0.23,0.46,0.56,1.359,0.99
					l-0.63,3.03v3.6l-0.52,3.95l0.52,1.55l-0.52,1.06c-0.141,2.87-0.61,5.131-1.41,6.771h-0.73c-0.88,0-1.31-0.92-1.31-2.75v-0.57
					l1.31-5.64l-0.47-2.08l-0.06-0.25l0.729-3.03l-0.02-0.03l-0.71-1.1l0.84-2.33l-1.21-2.18c0.18-1.13,0.27-2.05,0.27-2.76
					c0-0.75-0.09-1.81-0.27-3.17l0.479,0.28l0.42-1.41l-0.89-2.18l0.89-3.32l-0.529-4.3l0.729-4.66l-0.62-3.17l0.73-6.92l-0.11-5.36
					l0.53-4.94l-0.53-1.55l0.11-6.98l1.2-0.43c-0.94-1.22-1.41-2.32-1.41-3.31c0-0.57,0.21-1.08,0.63-1.56l1.93,0.57l0.53-0.99
					c0.66,0.71,0.99,1.46,0.99,2.26c0,0.56-0.19,1.25-0.57,2.05h1.51l0.21,3.31l1.311,1.48l0.21,2.12l1.729,1.48l0.57,2.96
					c0.22,1.13,0.58,1.98,1.1,2.54l3.561,3.46v0.28c0,0.75,0.37,1.62,1.1,2.61l2.46,2.26l2.67,4.23l8.37,9.38h0.94
					c0.77,0.85,1.26,1.63,1.47,2.33c0.21,0.71,0.4,1.08,0.58,1.13l3.4,1.48l2.72,3.04l1.57,0.7l3.029,2.33l2.88,1.13
					c0.08,0.11,0.16,0.22,0.24,0.32"/>
				<polyline fill="none" stroke="#808285" points="405.01,409.78 404.83,409.73 404.79,409.25 				"/>
				<polyline fill="none" stroke="#808285" points="406.78,386.21 407.55,389.76 406.81,391.31 				"/>
				<polyline fill="none" stroke="#808285" points="409.59,357.7 409.59,361.19 408.49,364.51 408.71,366.63 407.76,373.19 
					408.18,374.88 407.34,380.1 407.53,382.24 				"/>
				<path fill="none" stroke="#808285" d="M410.31,347.53l0.12,1.32l0.53-0.28c0,0.66-0.25,1.76-0.74,3.31l-0.63,1.91v2.83"/>
				<polyline fill="none" stroke="#808285" points="410.69,338.67 410.23,340.39 411.58,343.7 410.39,346.23 				"/>
				<path fill="none" stroke="#808285" d="M443.64,358.42c-0.59-2.15-1.37-4.08-2.35-5.76l-1.1-0.29l-1.891-2.33l-3.97-2.25
					c-2.55-2.59-5.271-4.05-8.17-4.38v0.99l-1.83-1.69l-2.46,0.14l-1.46-1.34h-1.73l-1.52-1.13h-1.521
					c-0.729,0-1.319-0.37-1.779-1.13l-3.17-0.58l-1.011-0.19c-0.77,0.33-1.85,0.87-3.25,1.62l-0.87-0.73l-1.59-1.32l-1.46,1.2
					l-1.21-1.06l-2.25,0.92v0.42h-0.939l-2.141,1.56l-1.47,0.28c-0.45,0.09-1.15,0.54-2.09,1.34c-0.94-1.6-1.521-3.34-1.73-5.22
					l1.101-2.05v-0.98c0.17-0.43,0.81-0.7,1.91-0.82c1.1-0.11,2.069-0.48,2.899-1.09c0.811,0.24,1.311,0.35,1.521,0.35
					c0.35,0,0.67-0.21,0.939-0.63l0.95,0.63c0.59-0.23,0.95-0.35,1.09-0.35c0.42,0,0.74,0.31,0.95,0.92h4.33h0.85l2.69,0.12
					l0.399,0.02l3.551,0.84c0.18,0.33,0.479,0.6,0.92,0.81c0.439,0.22,0.649,0.44,0.649,0.67l0.79-1.05h0.42
					c0.771,0,1.15,0.19,1.15,0.56c0,0.24-0.04,0.4-0.11,0.49h1.521c1.92,0.76,3.52,1.18,4.819,1.28l0.311,0.84h2.93l1.94,1.77
					c0.21,0.18,0.96,0.37,2.25,0.56l0.52,1.13h0.53c1.84,0,3.14,0.96,3.87,2.89l1.36-0.99v1.77c0.659,0.23,1.569,0.94,2.72,2.11
					h1.26l0.99,2.05l3.229,2.88"/>
				<path fill="none" stroke="#808285" d="M440.49,370.01c-0.76,0.56-1.76,1.03-2.971,1.41c-0.869,1.65-2.149,2.47-3.819,2.47h-0.58
					v0.85h-2.14l-1.261,1.34l-1.2,0.14c0,0.75-0.25,1.13-0.729,1.13l-1,1.06h-2.46l-1.46,1.83l-4.4,1.2l-0.58,0.56l-2.449-0.28
					c-0.07,0.33-0.391,1.15-0.95,2.47c-0.311-0.33-1.34-0.59-3.08-0.77l-1,0.77l-1.51,0.71c-0.67,0.59-1.37,1.03-2.12,1.31
					c-0.08,0.04-0.16,0.07-0.24,0.1l-0.63,2.75l0.899,2.25l0.2,0.5l-0.58,3.46l0.79,3.95l-0.68,0.561l0.89,1.689v2.9l0.42,1.479
					v2.61l2.46-0.29c0.351,0.43,0.521,0.95,0.521,1.561c0,1.46-0.75,2.18-2.25,2.18h-0.63l-1.73,0.85l-1.21-2.979l-0.22-0.53
					l-0.03-0.09l-1.939-5.641v-5.92l-1.101-2.899l0.79-1.12l-0.47-2.9l0.06-0.55l0.15-1.49l-0.73-1.27l-4.399-1.06l-1.15-2.26
					l1.41-0.17l3.93-0.46l-0.529-0.43c0.14-0.18,0.35-0.28,0.63-0.28c0.38,0,0.63,0.1,0.729,0.28v-3.31l0.681-1.69l0.319-8.68
					l0.63-1.06l-0.22-6.63l0.42-3.6l0.221-7.97l0.67-2.26l0.84-0.77l-0.21-2.12c0-0.86,0.319-1.34,0.95-1.46
					c0.1-0.01,0.199-0.02,0.31-0.02c2.25,0,3.46,0.93,3.64,2.81c0.011,0.16,0.021,0.32,0.021,0.5c0,0.21-0.03,0.48-0.101,0.8
					c-0.13,0.61-0.39,1.41-0.76,2.41c-0.58,1.53-0.87,2.67-0.87,3.43c0,0.73,0.301,1.81,0.91,3.25c0.09,0.22,0.19,0.46,0.3,0.7
					l-0.3,0.38l-0.7,0.88l-0.1,3.88l-1.36,1.77l0.42,3.03l-0.84,3.32l0.42,3.17l-0.42,2.47l0.21,1.9l-0.79,1.56
					c0.09,1.32,0.46,2.18,1.101,2.56c0.13,0.09,0.27,0.15,0.42,0.19l2.67-2.19h2.25c1.01-1.32,2.229-1.97,3.67-1.97l0.729-0.92
					c0.351,0.19,0.851,0.28,1.521,0.28c1.42,0,2.86-0.8,4.29-2.4l1.72-0.14l1.36-1.62h1.42l0.31-0.71l5.65-2.18
					c1.01-0.14,1.52-0.48,1.52-0.99c0.28-0.38,0.46-0.82,0.53-1.34c0.34,0.09,0.75,0.14,1.2,0.14c0.97,0,1.59-0.85,1.83-2.54
					c1.12-0.19,1.729-0.5,1.83-0.92c0.109-0.42,0.38-0.75,0.84-0.99l0.51,0.57"/>
				<path fill="none" stroke="#808285" d="M498.97,354.51l0.13,0.3c0.221,0.45,0.57,1.54,1.051,3.25c0.069,0.24,0.14,0.5,0.21,0.77
					l1.409,5.15c0.351,1.22,0.53,2.02,0.53,2.4v0.99l-1,3.17l-0.31,4.38l-0.94,1.27l-1.1,4.65c-0.11,0.61-0.21,1.06-0.311,1.34
					c-0.109,0.29-0.34,0.52-0.68,0.71l-1.15,0.63l-6.34,6.85l-1.46,0.98c-0.46,0.28-1.17,1.06-2.149,2.33v-0.85l-0.271,0.28"/>
				<path fill="none" stroke="#808285" d="M484,395.82l-1.53,1.6l-1.939,1.13l-4.61,3.38c-0.66-0.42-1.3-0.63-1.93-0.63
					c-0.49,0-0.86,0.23-1.13,0.7c-0.261,0.47-0.53,0.78-0.811,0.92l-0.939-0.28l-1.73,2.19l-0.89-0.64l-0.42,0.779h-1.83
					l-0.94,1.271l-3.189-0.29l-5.181,1.27c-0.21-0.09-0.529-0.14-0.949-0.14l-1.62,0.29l-1.83-0.43l-0.42-0.561l-4.5-0.99
					l-2.141-1.479h-0.95v-2.75l-1.51,0.77l-0.729-1.41c-0.32-0.52-0.67-0.909-1.05-1.199l-1.681-1.051
					c-0.56-2.12-0.87-4.569-0.939-7.339l-0.521-0.99l-0.21-5.78l1.46-6.21l-0.21-3.03l1-1.2l-0.79-2.47l1.15-1.24l0.01-0.01
					l0.67-0.73v-2.04l0.63-1.91v-0.81v-0.74l0.79-1.77l-0.32-0.56l0.53-0.42l0.84-2.6l1.41-4.32l0.88-1.88l3.301-7.07
					c0.63-0.29,1.09-0.79,1.359-1.52c0.28-0.73,1.03-1.68,2.25-2.86l-0.21-1.27h1.311l-0.311-0.84c0.8-1.13,1.9-2,3.29-2.61
					l0.79-1.2h-0.11c0-0.05,0.69-0.19,2.04-0.43l4.931-0.84l3.08,0.56l2.359-0.14h2.771c0.729,0.19,1.239,0.28,1.52,0.28
					c0.98,0,1.73-0.42,2.25-1.27c0.351,0.47,0.75,0.71,1.2,0.71c0.21,0,0.39-0.05,0.52-0.14c0.04,0.94,0.391,1.41,1.051,1.41
					c0.279,0.42,1.069,0.73,2.359,0.91l0.78,0.99l1.57,0.28h2.04l2.93,2.05h-0.67l1.979,1.9c0.25,0.24,0.601,0.9,1.051,1.98
					l1.569,0.99l0.78,1.76l1.84,0.99l3.33,7.48"/>
				<path fill="none" stroke="#808285" d="M485.24,389.75l0.31-1.15l0.32,0.14l0.21-0.99c0.83-0.33,1.51-0.96,2.04-1.9l0.97,0.41"/>
				<path fill="none" stroke="#808285" d="M489.13,386.22l0.5-1.36l1.73-1.77l2.88-4.3l1.729-0.84l0.84-2.47l1.41-1.34l-0.319-2.61
					l0.739-2.26l-0.42-4.23l0.62-1.41l-0.939-3.32l0.109-1.06c0-0.35-0.05-0.73-0.149-1.13c-0.03-0.14-0.07-0.28-0.11-0.42
					c-0.18-0.56-0.91-1.38-2.2-2.46l-0.79-2.75l-0.62-0.43l-0.319-1.62l-3.03-4.3l-2.67-3.04l-0.84,0.43l-3.87-3.32
					c-0.351-0.28-1.09-0.54-2.23-0.78c-1.13-0.23-1.989-0.61-2.59-1.13c0,0.1-0.1,0.14-0.31,0.14c-0.141,0-0.681-0.09-1.62-0.28
					l-0.53,0.5l-1.62-0.78l-1.05,0.78c-0.94-0.43-1.58-0.64-1.93-0.64c-0.21,0-0.521,0.11-0.92,0.32c-0.4,0.21-0.7,0.31-0.92,0.31
					c-0.341,0-0.591-0.11-0.73-0.35c-0.729,0.52-1.31,1.12-1.75,1.8c-0.43,0.68-1.14,1.31-2.12,1.87l-1.52-0.49l-1.46,1.34
					l-1.73-0.29l-0.63,0.36c-0.21,0.14-0.4,0.31-0.57,0.52c-0.18,0.21-0.399,0.46-0.66,0.75c-0.26,0.28-0.579,0.6-0.939,0.95
					c-0.37,0.35-0.771,0.74-1.2,1.16c-0.439,0.43-0.92,0.85-1.439,1.27c-0.25,0.24-0.721,1.2-1.421,2.89l0.11,2.05l-1.939,1.13
					c-0.21,0.14-0.641,0.73-1.311,1.76c-0.52,1.6-1.16,2.89-1.93,3.88v1.77c-0.84,0.47-1.33,1.05-1.47,1.76l-0.99,4.16l-1.78,1.55
					c-0.25,5.88-0.62,9.29-1.13,10.23c-0.5,0.95-0.85,1.8-1.04,2.58c-0.2,0.77-0.33,1.62-0.42,2.53c-0.09,0.92-0.34,2.23-0.76,3.92
					l0.63,1.7l0.31,2.61l0.99,1.76c0.14,0.28,0.25,0.63,0.32,1.06l0.21,1.69c0.68,1.029,1.439,1.92,2.29,2.649
					c0.85,0.721,1.77,1.3,2.79,1.721c2.02,0.85,3.18,1.229,3.5,1.13l3.449-1.2l0.74,1.06h1.72v0.99h1.681l0.47-1.77l1.68-0.28
					l4.29,0.71c0.38-0.94,0.82-1.41,1.311-1.41l0.41,0.14c1.58-1.369,2.729-2.05,3.46-2.05h0.42l2.14-1.83
					c0.28-0.19,1.03-0.33,2.25-0.43l1.37-1.62c2.58-0.09,4.06-0.33,4.44-0.7c0.39-0.38,0.729-0.78,1.02-1.2
					c0.21-0.29,0.6-0.56,1.19-0.81"/>
				<path fill="none" stroke="#808285" d="M549.59,341.64v0.01c0,1.84-0.91,2.94-2.72,3.32l-0.42-1.27l-3.51-1.63h-1.511l-1.21-1.97
					l-2.25,0.42l-0.729-0.99l-0.94,1.56l-1.52-1.56l-3.24,0.57l-3.61-1.34l-1,0.77c-2.27,0.15-3.609,0.43-4.029,0.85
					c-0.141-0.09-0.4-0.14-0.78-0.14c-0.53,0-1.021,0.38-1.47,1.13l-2.511,0.28l-6.649,3.31l-1.67-0.56l-2.46,2.61h-1.42l-1.04,2.05
					l-2.721,2.61c-0.279,0.18-0.42,0.37-0.42,0.56v0.14c0.351,1.55,0.561,2.85,0.62,3.88l1.11,0.71l0.52,1.48l1.62,0.56l1.2,1.13
					c0.35,0.33,1.35,0.92,2.99,1.77l0.21,0.7h2.46l3.189,2.9l1.311-0.57c0.8,0.33,1.64,0.89,2.54,1.69c0.88,0.8,1.51,1.2,1.85,1.2
					c0.32,0,0.7-0.19,1.15-0.56v0.98l3.67,0.43l1.1,0.91v-0.49h0.73l1.62,1.48c1.92,0,3.229,0.28,3.93,0.85
					c0.42-0.1,0.96-0.14,1.62-0.14c0.91,0,1.7,0.43,2.38,1.3s1.18,1.31,1.49,1.31h0.21l1.149-0.43l0.79,0.43h1.46l2.931,2.89
					l2.87,0.57l0.84,1.76l3.67,3.88c0.89,1.01,1.41,2.67,1.56,5c0.04,0.51,0.061,1.05,0.061,1.63l0.1,2.19
					c0,0.75-0.43,1.94-1.31,3.56c-0.87,1.63-1.931,2.79-3.19,3.49c-0.21,0.62-0.64,0.92-1.31,0.92h-0.311
					c-0.979,1.319-2.229,1.979-3.77,1.979c-0.45,0.8-1.08,1.48-1.88,2.04l-2.25-0.28l-1.94,2.33l-0.89-0.779l-1.36,0.64
					c-1.54,0.09-2.35,0.28-2.46,0.56l-3.35-0.42c-1.46,0.841-2.53,1.271-3.19,1.271l-2.93-0.29l-2.04,1.27l-1.15-0.279
					c-0.21-0.28-0.42-0.42-0.63-0.42c-0.35,0-0.64,0.239-0.89,0.699h-3.4l-1-0.84l-0.729,0.84l-5.131-0.279l-2.46-0.561
					c-0.729,0.471-1.31,0.7-1.72,0.7c-0.77,0-1.78-0.61-3.04-1.83l-1.78,0.99l-0.569-0.851h-1.16c-1.32,0-2.58-0.289-3.76-0.88
					c-1.19-0.59-1.94-0.88-2.25-0.88c-0.141,0-0.351,0.09-0.63,0.28l-3.771-3.6l-2.35-0.841c-1.021-1.729-1.73-3.239-2.11-4.53
					c-0.23-0.78-0.35-1.48-0.35-2.1c0-0.36,0.1-1.04,0.29-2.05c0.119-0.57,0.26-1.26,0.439-2.05l0.78,0.14c0.03,0,0.06,0,0.08-0.01
					c0.62-0.04,1.01-0.6,1.18-1.68l1.62-0.28l-0.73-0.49l1.15-0.14c0.24-0.38,0.45-0.68,0.63-0.9c0.021-0.02,0.03-0.03,0.04-0.04
					c0.271-0.31,0.48-0.47,0.64-0.47c0.771,0,1.15,0.87,1.15,2.6c-0.939,0.29-1.76,0.95-2.46,1.98c0,0.38-0.28,0.79-0.84,1.23
					c-0.55,0.45-0.96,0.82-1.2,1.1l0.17,0.45l0.141,0.39v2.47c1.189,0.9,2.27,2.169,3.25,3.81l1.31,0.279
					c0.42,0.101,1.11,0.57,2.09,1.421l1.93-0.29l-0.199-0.841l2.87,0.28l-0.62,0.561l2.35,0.569l0.32,0.7H505v0.5
					c0.45-0.52,0.94-0.78,1.46-0.78c0.28,0,0.62,0.11,1.03,0.32c0.39,0.21,1.17,0.36,2.319,0.46l0.221,0.84l1.46,0.15h1.62l1.1,0.56
					l-0.47-0.56c0.979-0.57,1.779-0.851,2.41-0.851c0.35,0,0.699,0.23,1.04,0.7c0.63-0.56,1.38-0.84,2.25-0.84
					c0.77,0,1.63,0.19,2.569,0.56c0.45-0.47,0.96-0.699,1.521-0.699c0.52,0,1.06,0.229,1.62,0.699l3.819-1.479l0.78-1.41l3.3,0.561
					l2.67-0.841l-0.42-0.14c0.141-0.19,1.36-0.33,3.67-0.43c0.2-0.33,0.38-0.49,0.521-0.49l0.729,0.14l2.721-1.55l0.529,0.28v-0.7
					h1.83v-0.29c0-0.89,0.55-1.34,1.67-1.34h0.79l0.42-0.56l-0.319-0.57c0.56-0.8,0.979-1.2,1.26-1.2c0.8,0,1.2-0.37,1.2-1.12
					c0.91-1.84,1.359-3.09,1.359-3.74c0-0.14-0.01-0.28-0.029-0.43c-0.32-2.16-3.04-4.68-8.181-7.54l-4.71-2.61
					c-1.229,0-2.95-0.57-5.189-1.7c-0.971-1.08-2.181-1.62-3.61-1.62c-0.9,0-1.58,0.09-2.04,0.28l-0.62-1.13l-1.52,0.85l-1.21-1.83
					l-1.67,0.56l-3.04-2.05h-1.931l-1.26-1.26h-1.729l-0.73-1.49l-0.21,0.71h-1.2l-1.52-2.4c-3.42-0.05-5.63-0.87-6.641-2.47
					l-1.149,0.43l-0.74-2.33l-1.73-2.47c-0.47-1.53-0.88-2.78-1.239-3.74c-0.311-0.85-0.58-1.47-0.811-1.89
					c0-0.01-0.01-0.02-0.02-0.03c-0.021-0.05-0.05-0.09-0.07-0.13v-0.03l0.42-4.27l1.73-3.03c0.66-0.38,1.149-1.25,1.46-2.61
					c1.08-0.94,1.92-1.46,2.51-1.56c0.18,0.38,0.39,0.57,0.63,0.57l1.05-2.05l0.471,0.99l0.21-0.99l3.93-1.83l-1.16-0.35l1.05,0.14
					c1.221,0,1.971-0.52,2.25-1.56c1.641,0,3.471-0.32,5.49-0.98l-0.52-0.64c0.18-0.19,0.489-0.28,0.939-0.28
					c0.53,0,0.87,0.09,1.05,0.28l-0.31-0.42l0.88,0.14c0.7,0,1.16-0.42,1.37-1.27h0.57l1.26-0.14c0.21,0,0.31,0.04,0.31,0.14v0.56
					c0.49-0.47,0.96-0.7,1.41-0.7h0.63l6.34-0.85l0.311,0.85v-0.99l1.41-1.2c0.35,0.99,1.06,1.48,2.149,1.48h0.521
					c1.71,0,2.859,0.24,3.45,0.71l-0.78,0.14c1.35,0,3.29,0.54,5.82,1.63"/>
				<path fill="none" stroke="#808285" d="M545.73,336.23l6.39,1.72l1.83-0.85l5.02,0.29l4.71,0.56l3.141-1.62h0.84l0.89-3.32
					l1.46,0.64l0.32,1.41l0.68-0.42c0.561,0.99,1.37,1.81,2.46,2.47l1.73-0.78c1.149,0,2.14,0.63,2.979,1.91l0.63-1.13l3.98-1.06
					l2.45,0.28c0.7,0.42,1.35,0.63,1.939,0.63h0.53c0.66-0.32,1.2-0.49,1.62-0.49l1.51,0.35c0.32,0,0.53-0.16,0.63-0.49l2.15-0.42
					l2.46,0.77c0.35,0.47,0.84,0.56,1.49,0.25c0.649-0.31,1.069-0.46,1.279-0.46l1.94,0.5l5.33-0.14l2.36,0.56h2.25l-0.521,1.55
					l-1.36,0.28h-3.25l-1.51,0.49l-1.26-0.49l-6.65,0.78l-2.25-0.78c-1.85,0.99-3.17,1.48-3.979,1.48h-3.19l-1.939-0.99
					c0,0.47-0.261,0.8-0.78,0.99c-0.98,0-1.93,0.19-2.85,0.57c-0.931,0.37-1.79,0.56-2.591,0.56l-2.149-1.13l-1.83,1.13l-0.21,0.92
					h-0.94l-0.58,1.41l-0.42,9.38l0.42,1.34l-0.21,1.55l0.11,4.17l-0.32,4.23v1.27c0,0.61-0.09,1.07-0.279,1.38
					c-0.19,0.3-0.341,1.07-0.45,2.29l0.84,1.83l-0.21,2.33l-0.73,0.7c0,0.57,0.21,1.3,0.62,2.19l-0.62,1.41v1.62l-0.84,1.7
					l0.53,4.09l-0.21,5.92l-0.79,3.74c0.14,0.38,0.21,0.66,0.21,0.85c0,0.28-0.06,0.6-0.18,0.95c-0.13,0.351-0.141,0.71-0.051,1.061
					c0.08,0.35,0.12,0.649,0.12,0.88c0,0.28-0.17,0.91-0.52,1.87c-0.351,0.97-0.47,1.56-0.37,1.8c0.04,0.1,0.16,0.85,0.37,2.26
					c-0.351,1.271-0.521,2.23-0.521,2.891c0,0.659,0.07,1.72,0.21,3.18c-0.42,0-0.8-0.07-1.13-0.21c-0.33-0.15-0.529-0.22-0.6-0.22
					c-0.561,0-0.84-1.38-0.84-4.16l0.21-2.19c0-0.8-0.07-1.95-0.21-3.45c-0.141-1.51-0.21-2.609-0.21-3.319l0.63-10.16
					c-0.561-1.27-0.84-1.97-0.84-2.11c0-0.52,0.18-0.97,0.529-1.34c-0.279-0.48-0.42-0.9-0.42-1.27c0-0.29,0.21-0.57,0.63-0.85
					c-0.279-0.94-0.42-1.58-0.42-1.91c0-0.51,0.12-1.21,0.36-2.08c0.25-0.86,0.37-1.37,0.37-1.51l-0.101-2.33
					c0-0.28,0.33-1.34,0.99-3.18c-0.59,0-0.89-0.63-0.89-1.9c0-2.21,0.21-3.46,0.63-3.74v-5.93l-0.63-2.89l0.63-6.07l-0.63-4.3
					l0.63-3.38c-0.28-1.32-0.771-1.98-1.47-1.98c-0.38,0-0.71,0.24-0.99,0.71l-1.521,0.21c-0.56,0.04-1.109,0.3-1.67,0.77
					l-1.31-0.14l-1.26,0.14v0.5h-0.891c-1.18,0-2.14-0.31-2.88-0.92l-0.21,0.92l-2.25-0.92l-4.25-0.19l-1.97-0.09l-2.46,0.99
					c-1.851-2.16-2.78-3.6-2.78-4.31c0-0.18,0.14-0.96,0.42-2.32h1.73L545.73,336.23z"/>
			</g>
		</g>
	</g>
</g>
<line fill="none" stroke="#000000" stroke-miterlimit="10" x1="23.37" y1="428.46" x2="52.76" y2="428.47"/>
</svg>
